<mxfile host="app.diagrams.net" agent="Mozilla/5.0 (Windows NT 10.0; Win64; x64) AppleWebKit/537.36 (KHTML, like Gecko) Chrome/116.0.5845.97 Safari/537.36 Core/1.116.485.400 QQBrowser/13.6.6321.400" version="26.1.1" pages="2">
  <diagram name="第 1 页" id="hFCM_WwLnem1pqTUJH24">
    <mxGraphModel dx="1789" dy="1766" grid="1" gridSize="10" guides="1" tooltips="1" connect="1" arrows="1" fold="1" page="1" pageScale="1" pageWidth="827" pageHeight="1169" math="0" shadow="0">
      <root>
        <mxCell id="0" />
        <mxCell id="1" parent="0" />
        <UserObject label="" plantUmlData="{&#xa;  &quot;data&quot;: &quot;@startuml\n|运营人员|\nstart\n:登录CTS系统;\n:进入计划配置页;\n\n|CTS系统|\n:加载案件总览视图;\n:展示案件统计数据;\n\n|运营人员|\n:点击\&quot;配置筛选规则\&quot;;\n\n|CTS系统|\n:调用ccl-olsm SDK接口;\nnote left: 查询CDA标签元数据\n\n|ccl-olsm SDK|\n:向CDA服务请求标签;\n:返回标签列表;\n\n|CTS系统|\n:渲染标签选择界面;\n\n|运营人员|\n:选择筛选标签条件;\n\n|CTS系统|\n:调用ccl-olsm SDK;\nnote left: 请求分组结构组装\n\n|ccl-olsm SDK|\n:执行标签组合逻辑;\n:生成分组JSON结构;\n\n|CTS系统|\n:持久化规则至数据库;\n:展示配置预览;\n\n|运营人员|\n:设置执行时间;\n:提交审批流程;\n\n|审批系统|\nif (审批通过?) then (是)\n  |CTS系统|\n  :同步规则至PLOLSM;\nelse (否)\n  stop\nendif\n\n|CTS系统|\n:监控执行时间触发;\n\n|PLOLSM系统|\n:接收执行信号;\n:启动分布式筛数任务;\n\n|Hive|\n:写入筛选结果数据;\n\n|PLOLSM系统|\n:发送完成通知;\n\n|CTS-BDP|\n:从Hive表提取数据;\n:执行案件操作指令;\n\n|运营人员|\n:查看执行报告;\nend\n@enduml&quot;,&#xa;  &quot;format&quot;: &quot;svg&quot;&#xa;}" id="kZ-Hp-c6c5PFdwDFW7s0-4">
          <mxCell style="shape=image;noLabel=1;verticalAlign=top;aspect=fixed;imageAspect=0;image=data:image/svg+xml,PD94bWwgdmVyc2lvbj0iMS4wIiBlbmNvZGluZz0idXMtYXNjaWkiIHN0YW5kYWxvbmU9Im5vIj8+PHN2ZyB4bWxucz0iaHR0cDovL3d3dy53My5vcmcvMjAwMC9zdmciIHhtbG5zOnhsaW5rPSJodHRwOi8vd3d3LnczLm9yZy8xOTk5L3hsaW5rIiBjb250ZW50U3R5bGVUeXBlPSJ0ZXh0L2NzcyIgaGVpZ2h0PSIxNTI5cHgiIHByZXNlcnZlQXNwZWN0UmF0aW89Im5vbmUiIHN0eWxlPSJ3aWR0aDoxMTIycHg7aGVpZ2h0OjE1MjlweDtiYWNrZ3JvdW5kOiNGRkZGRkY7IiB2ZXJzaW9uPSIxLjEiIHZpZXdCb3g9IjAgMCAxMTIyIDE1MjkiIHdpZHRoPSIxMTIycHgiIHpvb21BbmRQYW49Im1hZ25pZnkiPjxkZWZzLz48Zz48cmVjdCBmaWxsPSJub25lIiBoZWlnaHQ9IjE5LjI2NTYiIHN0eWxlPSJzdHJva2U6bm9uZTtzdHJva2Utd2lkdGg6MS4wOyIgd2lkdGg9IjEwODkuNSIgeD0iMTUiIHk9IjExIi8+PGVsbGlwc2UgY3g9Ijg1IiBjeT0iNDUuMjY1NiIgZmlsbD0iIzIyMjIyMiIgcng9IjEwIiByeT0iMTAiIHN0eWxlPSJzdHJva2U6IzIyMjIyMjtzdHJva2Utd2lkdGg6MS4wOyIvPjxyZWN0IGZpbGw9IiNGMUYxRjEiIGhlaWdodD0iMzIuODQzOCIgcng9IjEyLjUiIHJ5PSIxMi41IiBzdHlsZT0ic3Ryb2tlOiMxODE4MTg7c3Ryb2tlLXdpZHRoOjAuNTsiIHdpZHRoPSI4OCIgeD0iNDEiIHk9Ijc1LjI2NTYiLz48dGV4dCBmaWxsPSIjMDAwMDAwIiBmb250LWZhbWlseT0ic2Fucy1zZXJpZiIgZm9udC1zaXplPSIxMiIgbGVuZ3RoQWRqdXN0PSJzcGFjaW5nIiB0ZXh0TGVuZ3RoPSI2OCIgeD0iNTEiIHk9Ijk2LjYwOTQiPiYjMzAzMzE7JiMyNDQwNTtDVFMmIzMxOTk1OyYjMzI0Nzk7PC90ZXh0PjxyZWN0IGZpbGw9IiNGMUYxRjEiIGhlaWdodD0iMzIuODQzOCIgcng9IjEyLjUiIHJ5PSIxMi41IiBzdHlsZT0ic3Ryb2tlOiMxODE4MTg7c3Ryb2tlLXdpZHRoOjAuNTsiIHdpZHRoPSIxMDQiIHg9IjMzIiB5PSIxMjguMTA5NCIvPjx0ZXh0IGZpbGw9IiMwMDAwMDAiIGZvbnQtZmFtaWx5PSJzYW5zLXNlcmlmIiBmb250LXNpemU9IjEyIiBsZW5ndGhBZGp1c3Q9InNwYWNpbmciIHRleHRMZW5ndGg9Ijg0IiB4PSI0MyIgeT0iMTQ5LjQ1MzEiPiYjMzY4Mjc7JiMyMDgzNzsmIzM1NzQ1OyYjMjEwMTA7JiMzNzE5NzsmIzMyNjIyOyYjMzkwMjk7PC90ZXh0PjxyZWN0IGZpbGw9IiNGMUYxRjEiIGhlaWdodD0iMzIuODQzOCIgcng9IjEyLjUiIHJ5PSIxMi41IiBzdHlsZT0ic3Ryb2tlOiMxODE4MTg7c3Ryb2tlLXdpZHRoOjAuNTsiIHdpZHRoPSIxMjgiIHg9IjIxIiB5PSIyODYuNjQwNiIvPjx0ZXh0IGZpbGw9IiMwMDAwMDAiIGZvbnQtZmFtaWx5PSJzYW5zLXNlcmlmIiBmb250LXNpemU9IjEyIiBsZW5ndGhBZGp1c3Q9InNwYWNpbmciIHRleHRMZW5ndGg9IjEwOCIgeD0iMzEiIHk9IjMwNy45ODQ0Ij4mIzI4ODU3OyYjMjA5ODc7IiYjMzcxOTc7JiMzMjYyMjsmIzMxNTc5OyYjMzY4NzM7JiMzNTI2ODsmIzIxMDE3OyI8L3RleHQ+PHJlY3QgZmlsbD0iI0YxRjFGMSIgaGVpZ2h0PSIzMi44NDM4IiByeD0iMTIuNSIgcnk9IjEyLjUiIHN0eWxlPSJzdHJva2U6IzE4MTgxODtzdHJva2Utd2lkdGg6MC41OyIgd2lkdGg9IjExNiIgeD0iMjciIHk9IjU1MC44NTk0Ii8+PHRleHQgZmlsbD0iIzAwMDAwMCIgZm9udC1mYW1pbHk9InNhbnMtc2VyaWYiIGZvbnQtc2l6ZT0iMTIiIGxlbmd0aEFkanVzdD0ic3BhY2luZyIgdGV4dExlbmd0aD0iOTYiIHg9IjM3IiB5PSI1NzIuMjAzMSI+JiMzNjg3MzsmIzI1MzIxOyYjMzE1Nzk7JiMzNjg3MzsmIzI2NjMxOyYjMzE2MTQ7JiMyNjQ2NTsmIzIwMjE0OzwvdGV4dD48cmVjdCBmaWxsPSIjRjFGMUYxIiBoZWlnaHQ9IjMyLjg0MzgiIHJ4PSIxMi41IiByeT0iMTIuNSIgc3R5bGU9InN0cm9rZTojMTgxODE4O3N0cm9rZS13aWR0aDowLjU7IiB3aWR0aD0iOTIiIHg9IjM5IiB5PSI4NjcuOTIxOSIvPjx0ZXh0IGZpbGw9IiMwMDAwMDAiIGZvbnQtZmFtaWx5PSJzYW5zLXNlcmlmIiBmb250LXNpemU9IjEyIiBsZW5ndGhBZGp1c3Q9InNwYWNpbmciIHRleHRMZW5ndGg9IjcyIiB4PSI0OSIgeT0iODg5LjI2NTYiPiYjMzU3NzQ7JiMzMjYyMjsmIzI1MTkxOyYjMzQ4OTI7JiMyNjEwMjsmIzM4Mzg4OzwvdGV4dD48cmVjdCBmaWxsPSIjRjFGMUYxIiBoZWlnaHQ9IjMyLjg0MzgiIHJ4PSIxMi41IiByeT0iMTIuNSIgc3R5bGU9InN0cm9rZTojMTgxODE4O3N0cm9rZS13aWR0aDowLjU7IiB3aWR0aD0iOTIiIHg9IjM5IiB5PSI5MjAuNzY1NiIvPjx0ZXh0IGZpbGw9IiMwMDAwMDAiIGZvbnQtZmFtaWx5PSJzYW5zLXNlcmlmIiBmb250LXNpemU9IjEyIiBsZW5ndGhBZGp1c3Q9InNwYWNpbmciIHRleHRMZW5ndGg9IjcyIiB4PSI0OSIgeT0iOTQyLjEwOTQiPiYjMjU1NTI7JiMyMDEzMjsmIzIzNDU3OyYjMjUyMDk7JiMyNzk2OTsmIzMxMjQzOzwvdGV4dD48cmVjdCBmaWxsPSIjRjFGMUYxIiBoZWlnaHQ9IjMyLjg0MzgiIHJ4PSIxMi41IiByeT0iMTIuNSIgc3R5bGU9InN0cm9rZTojMTgxODE4O3N0cm9rZS13aWR0aDowLjU7IiB3aWR0aD0iOTIiIHg9IjM5IiB5PSIxNDQ0LjM1OTQiLz48dGV4dCBmaWxsPSIjMDAwMDAwIiBmb250LWZhbWlseT0ic2Fucy1zZXJpZiIgZm9udC1zaXplPSIxMiIgbGVuZ3RoQWRqdXN0PSJzcGFjaW5nIiB0ZXh0TGVuZ3RoPSI3MiIgeD0iNDkiIHk9IjE0NjUuNzAzMSI+JiMyNjU5NzsmIzMwNDc1OyYjMjUxOTE7JiMzNDg5MjsmIzI1MjUzOyYjMjE1Nzg7PC90ZXh0PjxlbGxpcHNlIGN4PSI4NSIgY3k9IjE1MDcuMjAzMSIgZmlsbD0ibm9uZSIgcng9IjEwIiByeT0iMTAiIHN0eWxlPSJzdHJva2U6IzIyMjIyMjtzdHJva2Utd2lkdGg6MS41OyIvPjxsaW5lIHN0eWxlPSJzdHJva2U6IzIyMjIyMjtzdHJva2Utd2lkdGg6Mi41OyIgeDE9Ijc4LjgxMjgiIHgyPSI5MS4xODcyIiB5MT0iMTUwMS4wMTU5IiB5Mj0iMTUxMy4zOTAzIi8+PGxpbmUgc3R5bGU9InN0cm9rZTojMjIyMjIyO3N0cm9rZS13aWR0aDoyLjU7IiB4MT0iOTEuMTg3MiIgeDI9Ijc4LjgxMjgiIHkxPSIxNTAxLjAxNTkiIHkyPSIxNTEzLjM5MDMiLz48bGluZSBzdHlsZT0ic3Ryb2tlOiMwMDAwMDA7c3Ryb2tlLXdpZHRoOjEuNTsiIHgxPSIxNSIgeDI9IjE1IiB5MT0iMTEiIHkyPSIxNTE3LjIwMzEiLz48cmVjdCBmaWxsPSIjRjFGMUYxIiBoZWlnaHQ9IjMyLjg0MzgiIHJ4PSIxMi41IiByeT0iMTIuNSIgc3R5bGU9InN0cm9rZTojMTgxODE4O3N0cm9rZS13aWR0aDowLjU7IiB3aWR0aD0iMTE2IiB4PSIzMjUiIHk9IjE4MC45NTMxIi8+PHRleHQgZmlsbD0iIzAwMDAwMCIgZm9udC1mYW1pbHk9InNhbnMtc2VyaWYiIGZvbnQtc2l6ZT0iMTIiIGxlbmd0aEFkanVzdD0ic3BhY2luZyIgdGV4dExlbmd0aD0iOTYiIHg9IjMzNSIgeT0iMjAyLjI5NjkiPiYjMjExNTI7JiMzNjczMzsmIzI2Njk2OyYjMjAyMTQ7JiMyNDYzNTsmIzM1MjcyOyYjMzUyNzA7JiMyMjI3MDs8L3RleHQ+PHJlY3QgZmlsbD0iI0YxRjFGMSIgaGVpZ2h0PSIzMi44NDM4IiByeD0iMTIuNSIgcnk9IjEyLjUiIHN0eWxlPSJzdHJva2U6IzE4MTgxODtzdHJva2Utd2lkdGg6MC41OyIgd2lkdGg9IjExNiIgeD0iMzI1IiB5PSIyMzMuNzk2OSIvPjx0ZXh0IGZpbGw9IiMwMDAwMDAiIGZvbnQtZmFtaWx5PSJzYW5zLXNlcmlmIiBmb250LXNpemU9IjEyIiBsZW5ndGhBZGp1c3Q9InNwYWNpbmciIHRleHRMZW5ndGg9Ijk2IiB4PSIzMzUiIHk9IjI1NS4xNDA2Ij4mIzIzNjM3OyYjMzEwMzQ7JiMyNjY5NjsmIzIwMjE0OyYjMzI0Nzk7JiMzNTc0NTsmIzI1OTY4OyYjMjU0NTQ7PC90ZXh0PjxwYXRoIGQ9Ik0xNTgsMzQzLjk0OTIgTDE1OCwzNjcuODYzMyBBMCwwIDAgMCAwIDE1OCwzNjcuODYzMyBMMjkxLDM2Ny44NjMzIEEwLDAgMCAwIDAgMjkxLDM2Ny44NjMzIEwyOTEsMzYxLjk0OTIgTDMxMSwzNTUuOTA2MyBMMjkxLDM1My45NDkyIEwyOTEsMzUzLjk0OTIgTDI4MSwzNDMuOTQ5MiBMMTU4LDM0My45NDkyIEEwLDAgMCAwIDAgMTU4LDM0My45NDkyICIgZmlsbD0iI0ZFRkZERCIgc3R5bGU9InN0cm9rZTojMTgxODE4O3N0cm9rZS13aWR0aDowLjU7Ii8+PHBhdGggZD0iTTI4MSwzNDMuOTQ5MiBMMjgxLDM1My45NDkyIEwyOTEsMzUzLjk0OTIgTDI4MSwzNDMuOTQ5MiAiIGZpbGw9IiNGRUZGREQiIHN0eWxlPSJzdHJva2U6IzE4MTgxODtzdHJva2Utd2lkdGg6MC41OyIvPjx0ZXh0IGZpbGw9IiMwMDAwMDAiIGZvbnQtZmFtaWx5PSJzYW5zLXNlcmlmIiBmb250LXNpemU9IjEzIiBsZW5ndGhBZGp1c3Q9InNwYWNpbmciIHRleHRMZW5ndGg9IjExMiIgeD0iMTY0IiB5PSIzNjEuMjM4MyI+JiMyNjU5NzsmIzM1ODEwO0NEQSYjMjY2MzE7JiMzMTYxNDsmIzIwODAzOyYjMjU5Njg7JiMyNTQ1NDs8L3RleHQ+PHJlY3QgZmlsbD0iI0YxRjFGMSIgaGVpZ2h0PSIzMi44NDM4IiByeD0iMTIuNSIgcnk9IjEyLjUiIHN0eWxlPSJzdHJva2U6IzE4MTgxODtzdHJva2Utd2lkdGg6MC41OyIgd2lkdGg9IjE0NCIgeD0iMzExIiB5PSIzMzkuNDg0NCIvPjx0ZXh0IGZpbGw9IiMwMDAwMDAiIGZvbnQtZmFtaWx5PSJzYW5zLXNlcmlmIiBmb250LXNpemU9IjEyIiBsZW5ndGhBZGp1c3Q9InNwYWNpbmciIHRleHRMZW5ndGg9IjEyNCIgeD0iMzIxIiB5PSIzNjAuODI4MSI+JiMzNTg0MzsmIzI5OTkyO2NjbC1vbHNtIFNESyYjMjU1MDk7JiMyMTQ3NTs8L3RleHQ+PHJlY3QgZmlsbD0iI0YxRjFGMSIgaGVpZ2h0PSIzMi44NDM4IiByeD0iMTIuNSIgcnk9IjEyLjUiIHN0eWxlPSJzdHJva2U6IzE4MTgxODtzdHJva2Utd2lkdGg6MC41OyIgd2lkdGg9IjExNiIgeD0iMzI1IiB5PSI0OTguMDE1NiIvPjx0ZXh0IGZpbGw9IiMwMDAwMDAiIGZvbnQtZmFtaWx5PSJzYW5zLXNlcmlmIiBmb250LXNpemU9IjEyIiBsZW5ndGhBZGp1c3Q9InNwYWNpbmciIHRleHRMZW5ndGg9Ijk2IiB4PSIzMzUiIHk9IjUxOS4zNTk0Ij4mIzI4MjEwOyYjMjY1Nzk7JiMyNjYzMTsmIzMxNjE0OyYjMzY4NzM7JiMyNTMyMTsmIzMwMDI4OyYjMzg3NTQ7PC90ZXh0PjxwYXRoIGQ9Ik0xNzgsNjA4LjE2OCBMMTc4LDYzMi4wODIgQTAsMCAwIDAgMCAxNzgsNjMyLjA4MiBMMzAzLDYzMi4wODIgQTAsMCAwIDAgMCAzMDMsNjMyLjA4MiBMMzAzLDYyNi4xNjggTDMyMyw2MjAuMTI1IEwzMDMsNjE4LjE2OCBMMzAzLDYxOC4xNjggTDI5Myw2MDguMTY4IEwxNzgsNjA4LjE2OCBBMCwwIDAgMCAwIDE3OCw2MDguMTY4ICIgZmlsbD0iI0ZFRkZERCIgc3R5bGU9InN0cm9rZTojMTgxODE4O3N0cm9rZS13aWR0aDowLjU7Ii8+PHBhdGggZD0iTTI5Myw2MDguMTY4IEwyOTMsNjE4LjE2OCBMMzAzLDYxOC4xNjggTDI5Myw2MDguMTY4ICIgZmlsbD0iI0ZFRkZERCIgc3R5bGU9InN0cm9rZTojMTgxODE4O3N0cm9rZS13aWR0aDowLjU7Ii8+PHRleHQgZmlsbD0iIzAwMDAwMCIgZm9udC1mYW1pbHk9InNhbnMtc2VyaWYiIGZvbnQtc2l6ZT0iMTMiIGxlbmd0aEFkanVzdD0ic3BhY2luZyIgdGV4dExlbmd0aD0iMTA0IiB4PSIxODQiIHk9IjYyNS40NTciPiYjMzU4MzE7JiMyNzcxNDsmIzIwOTk4OyYjMzI0NTI7JiMzMjQ2NzsmIzI2NTAwOyYjMzI0NTI7JiMzNTAxMzs8L3RleHQ+PHJlY3QgZmlsbD0iI0YxRjFGMSIgaGVpZ2h0PSIzMi44NDM4IiByeD0iMTIuNSIgcnk9IjEyLjUiIHN0eWxlPSJzdHJva2U6IzE4MTgxODtzdHJva2Utd2lkdGg6MC41OyIgd2lkdGg9IjEyMCIgeD0iMzIzIiB5PSI2MDMuNzAzMSIvPjx0ZXh0IGZpbGw9IiMwMDAwMDAiIGZvbnQtZmFtaWx5PSJzYW5zLXNlcmlmIiBmb250LXNpemU9IjEyIiBsZW5ndGhBZGp1c3Q9InNwYWNpbmciIHRleHRMZW5ndGg9IjEwMCIgeD0iMzMzIiB5PSI2MjUuMDQ2OSI+JiMzNTg0MzsmIzI5OTkyO2NjbC1vbHNtIFNESzwvdGV4dD48cmVjdCBmaWxsPSIjRjFGMUYxIiBoZWlnaHQ9IjMyLjg0MzgiIHJ4PSIxMi41IiByeT0iMTIuNSIgc3R5bGU9InN0cm9rZTojMTgxODE4O3N0cm9rZS13aWR0aDowLjU7IiB3aWR0aD0iMTI4IiB4PSIzMTkiIHk9Ijc2Mi4yMzQ0Ii8+PHRleHQgZmlsbD0iIzAwMDAwMCIgZm9udC1mYW1pbHk9InNhbnMtc2VyaWYiIGZvbnQtc2l6ZT0iMTIiIGxlbmd0aEFkanVzdD0ic3BhY2luZyIgdGV4dExlbmd0aD0iMTA4IiB4PSIzMjkiIHk9Ijc4My41NzgxIj4mIzI1MzQ1OyYjMjAwMzc7JiMyMTI3MDsmIzM1MjY4OyYjMjEwMTc7JiMzMzI2NzsmIzI1OTY4OyYjMjU0NTQ7JiMyNDIxMTs8L3RleHQ+PHJlY3QgZmlsbD0iI0YxRjFGMSIgaGVpZ2h0PSIzMi44NDM4IiByeD0iMTIuNSIgcnk9IjEyLjUiIHN0eWxlPSJzdHJva2U6IzE4MTgxODtzdHJva2Utd2lkdGg6MC41OyIgd2lkdGg9IjkyIiB4PSIzMzciIHk9IjgxNS4wNzgxIi8+PHRleHQgZmlsbD0iIzAwMDAwMCIgZm9udC1mYW1pbHk9InNhbnMtc2VyaWYiIGZvbnQtc2l6ZT0iMTIiIGxlbmd0aEFkanVzdD0ic3BhY2luZyIgdGV4dExlbmd0aD0iNzIiIHg9IjM0NyIgeT0iODM2LjQyMTkiPiYjMjM2Mzc7JiMzMTAzNDsmIzM3MTk3OyYjMzI2MjI7JiMzOTA0NDsmIzM1MjcyOzwvdGV4dD48cmVjdCBmaWxsPSIjRjFGMUYxIiBoZWlnaHQ9IjMyLjg0MzgiIHJ4PSIxMi41IiByeT0iMTIuNSIgc3R5bGU9InN0cm9rZTojMTgxODE4O3N0cm9rZS13aWR0aDowLjU7IiB3aWR0aD0iMTIwIiB4PSIzMjMiIHk9IjEwMjEuNjA5NCIvPjx0ZXh0IGZpbGw9IiMwMDAwMDAiIGZvbnQtZmFtaWx5PSJzYW5zLXNlcmlmIiBmb250LXNpemU9IjEyIiBsZW5ndGhBZGp1c3Q9InNwYWNpbmciIHRleHRMZW5ndGg9IjEwMCIgeD0iMzMzIiB5PSIxMDQyLjk1MzEiPiYjMjE1MTY7JiMyNzQ5MzsmIzM1MjY4OyYjMjEwMTc7JiMzMzI2NztQTE9MU008L3RleHQ+PGVsbGlwc2UgY3g9IjQ1MyIgY3k9Ijk4NS42MDk0IiBmaWxsPSJub25lIiByeD0iMTEiIHJ5PSIxMSIgc3R5bGU9InN0cm9rZTojMjIyMjIyO3N0cm9rZS13aWR0aDoxLjA7Ii8+PGVsbGlwc2UgY3g9IjQ1MyIgY3k9Ijk4NS42MDk0IiBmaWxsPSIjMjIyMjIyIiByeD0iNiIgcnk9IjYiIHN0eWxlPSJzdHJva2U6IzIyMjIyMjtzdHJva2Utd2lkdGg6MS4wOyIvPjxyZWN0IGZpbGw9IiNGMUYxRjEiIGhlaWdodD0iMzIuODQzOCIgcng9IjEyLjUiIHJ5PSIxMi41IiBzdHlsZT0ic3Ryb2tlOiMxODE4MTg7c3Ryb2tlLXdpZHRoOjAuNTsiIHdpZHRoPSIxMTYiIHg9IjMyNSIgeT0iMTA3NC40NTMxIi8+PHRleHQgZmlsbD0iIzAwMDAwMCIgZm9udC1mYW1pbHk9InNhbnMtc2VyaWYiIGZvbnQtc2l6ZT0iMTIiIGxlbmd0aEFkanVzdD0ic3BhY2luZyIgdGV4dExlbmd0aD0iOTYiIHg9IjMzNSIgeT0iMTA5NS43OTY5Ij4mIzMwNDE3OyYjMjU1MTE7JiMyNTE5MTsmIzM0ODkyOyYjMjYxMDI7JiMzODM4ODsmIzM1MzAyOyYjMjE0NTc7PC90ZXh0PjxsaW5lIHN0eWxlPSJzdHJva2U6IzAwMDAwMDtzdHJva2Utd2lkdGg6MS41OyIgeDE9IjE1MyIgeDI9IjE1MyIgeTE9IjExIiB5Mj0iMTUxNy4yMDMxIi8+PHJlY3QgZmlsbD0iI0YxRjFGMSIgaGVpZ2h0PSIzMi44NDM4IiByeD0iMTIuNSIgcnk9IjEyLjUiIHN0eWxlPSJzdHJva2U6IzE4MTgxODtzdHJva2Utd2lkdGg6MC41OyIgd2lkdGg9IjEyNSIgeD0iNDc0IiB5PSIzOTIuMzI4MSIvPjx0ZXh0IGZpbGw9IiMwMDAwMDAiIGZvbnQtZmFtaWx5PSJzYW5zLXNlcmlmIiBmb250LXNpemU9IjEyIiBsZW5ndGhBZGp1c3Q9InNwYWNpbmciIHRleHRMZW5ndGg9IjEwNSIgeD0iNDg0IiB5PSI0MTMuNjcxOSI+JiMyMTUyMTtDREEmIzI2MzgxOyYjMjExNTM7JiMzNTgzMTsmIzI3NzE0OyYjMjY2MzE7JiMzMTYxNDs8L3RleHQ+PHJlY3QgZmlsbD0iI0YxRjFGMSIgaGVpZ2h0PSIzMi44NDM4IiByeD0iMTIuNSIgcnk9IjEyLjUiIHN0eWxlPSJzdHJva2U6IzE4MTgxODtzdHJva2Utd2lkdGg6MC41OyIgd2lkdGg9IjkyIiB4PSI0OTAuNSIgeT0iNDQ1LjE3MTkiLz48dGV4dCBmaWxsPSIjMDAwMDAwIiBmb250LWZhbWlseT0ic2Fucy1zZXJpZiIgZm9udC1zaXplPSIxMiIgbGVuZ3RoQWRqdXN0PSJzcGFjaW5nIiB0ZXh0TGVuZ3RoPSI3MiIgeD0iNTAwLjUiIHk9IjQ2Ni41MTU2Ij4mIzM2ODIwOyYjMjIyMzg7JiMyNjYzMTsmIzMxNjE0OyYjMjEwMTU7JiMzNDkyMDs8L3RleHQ+PHJlY3QgZmlsbD0iI0YxRjFGMSIgaGVpZ2h0PSIzMi44NDM4IiByeD0iMTIuNSIgcnk9IjEyLjUiIHN0eWxlPSJzdHJva2U6IzE4MTgxODtzdHJva2Utd2lkdGg6MC41OyIgd2lkdGg9IjExNiIgeD0iNDc4LjUiIHk9IjY1Ni41NDY5Ii8+PHRleHQgZmlsbD0iIzAwMDAwMCIgZm9udC1mYW1pbHk9InNhbnMtc2VyaWYiIGZvbnQtc2l6ZT0iMTIiIGxlbmd0aEFkanVzdD0ic3BhY2luZyIgdGV4dExlbmd0aD0iOTYiIHg9IjQ4OC41IiB5PSI2NzcuODkwNiI+JiMyNTE5MTsmIzM0ODkyOyYjMjY2MzE7JiMzMTYxNDsmIzMyNDUyOyYjMjE1MTI7JiMzNjkyMzsmIzM2NzUzOzwvdGV4dD48cmVjdCBmaWxsPSIjRjFGMUYxIiBoZWlnaHQ9IjMyLjg0MzgiIHJ4PSIxMi41IiByeT0iMTIuNSIgc3R5bGU9InN0cm9rZTojMTgxODE4O3N0cm9rZS13aWR0aDowLjU7IiB3aWR0aD0iMTE5IiB4PSI0NzciIHk9IjcwOS4zOTA2Ii8+PHRleHQgZmlsbD0iIzAwMDAwMCIgZm9udC1mYW1pbHk9InNhbnMtc2VyaWYiIGZvbnQtc2l6ZT0iMTIiIGxlbmd0aEFkanVzdD0ic3BhY2luZyIgdGV4dExlbmd0aD0iOTkiIHg9IjQ4NyIgeT0iNzMwLjczNDQiPiYjMjk5ODM7JiMyNTEwNDsmIzIwOTk4OyYjMzI0NTI7SlNPTiYjMzI0Njc7JiMyNjUwMDs8L3RleHQ+PGxpbmUgc3R5bGU9InN0cm9rZTojMDAwMDAwO3N0cm9rZS13aWR0aDoxLjU7IiB4MT0iNDY4IiB4Mj0iNDY4IiB5MT0iMTEiIHkyPSIxNTE3LjIwMzEiLz48cG9seWdvbiBmaWxsPSIjRjFGMUYxIiBwb2ludHM9IjYzMCw5NzMuNjA5NCw2ODAsOTczLjYwOTQsNjkyLDk4NS42MDk0LDY4MCw5OTcuNjA5NCw2MzAsOTk3LjYwOTQsNjE4LDk4NS42MDk0LDYzMCw5NzMuNjA5NCIgc3R5bGU9InN0cm9rZTojMTgxODE4O3N0cm9rZS13aWR0aDowLjU7Ii8+PHRleHQgZmlsbD0iIzAwMDAwMCIgZm9udC1mYW1pbHk9InNhbnMtc2VyaWYiIGZvbnQtc2l6ZT0iMTEiIGxlbmd0aEFkanVzdD0ic3BhY2luZyIgdGV4dExlbmd0aD0iMTEiIHg9IjY1OSIgeT0iMTAwOC4wMDc4Ij4mIzI2MTU5OzwvdGV4dD48dGV4dCBmaWxsPSIjMDAwMDAwIiBmb250LWZhbWlseT0ic2Fucy1zZXJpZiIgZm9udC1zaXplPSIxMSIgbGVuZ3RoQWRqdXN0PSJzcGFjaW5nIiB0ZXh0TGVuZ3RoPSI1MCIgeD0iNjMwIiB5PSI5OTAuMTIxMSI+JiMyMzQ1NzsmIzI1MjA5OyYjMzY4OTA7JiMzNjgwNzs/PC90ZXh0Pjx0ZXh0IGZpbGw9IiMwMDAwMDAiIGZvbnQtZmFtaWx5PSJzYW5zLXNlcmlmIiBmb250LXNpemU9IjExIiBsZW5ndGhBZGp1c3Q9InNwYWNpbmciIHRleHRMZW5ndGg9IjExIiB4PSI2OTIiIHk9Ijk4NC4yMzQ0Ij4mIzIxNTQyOzwvdGV4dD48bGluZSBzdHlsZT0ic3Ryb2tlOiMwMDAwMDA7c3Ryb2tlLXdpZHRoOjEuNTsiIHgxPSI2MDMiIHgyPSI2MDMiIHkxPSIxMSIgeTI9IjE1MTcuMjAzMSIvPjxyZWN0IGZpbGw9IiNGMUYxRjEiIGhlaWdodD0iMzIuODQzOCIgcng9IjEyLjUiIHJ5PSIxMi41IiBzdHlsZT0ic3Ryb2tlOiMxODE4MTg7c3Ryb2tlLXdpZHRoOjAuNTsiIHdpZHRoPSI5MiIgeD0iNzMyIiB5PSIxMTI3LjI5NjkiLz48dGV4dCBmaWxsPSIjMDAwMDAwIiBmb250LWZhbWlseT0ic2Fucy1zZXJpZiIgZm9udC1zaXplPSIxMiIgbGVuZ3RoQWRqdXN0PSJzcGFjaW5nIiB0ZXh0TGVuZ3RoPSI3MiIgeD0iNzQyIiB5PSIxMTQ4LjY0MDYiPiYjMjU1MDk7JiMyNTkxMDsmIzI1MTkxOyYjMzQ4OTI7JiMyMDQ0OTsmIzIxNDk1OzwvdGV4dD48cmVjdCBmaWxsPSIjRjFGMUYxIiBoZWlnaHQ9IjMyLjg0MzgiIHJ4PSIxMi41IiByeT0iMTIuNSIgc3R5bGU9InN0cm9rZTojMTgxODE4O3N0cm9rZS13aWR0aDowLjU7IiB3aWR0aD0iMTI4IiB4PSI3MTQiIHk9IjExODAuMTQwNiIvPjx0ZXh0IGZpbGw9IiMwMDAwMDAiIGZvbnQtZmFtaWx5PSJzYW5zLXNlcmlmIiBmb250LXNpemU9IjEyIiBsZW5ndGhBZGp1c3Q9InNwYWNpbmciIHRleHRMZW5ndGg9IjEwOCIgeD0iNzI0IiB5PSIxMjAxLjQ4NDQiPiYjMjE1NTE7JiMyMTE2MDsmIzIwOTk4OyYjMjQwNjc7JiMyNDMzNTsmIzMxNTc5OyYjMjU5Njg7JiMyMDIxOTsmIzIxMTUzOzwvdGV4dD48cmVjdCBmaWxsPSIjRjFGMUYxIiBoZWlnaHQ9IjMyLjg0MzgiIHJ4PSIxMi41IiByeT0iMTIuNSIgc3R5bGU9InN0cm9rZTojMTgxODE4O3N0cm9rZS13aWR0aDowLjU7IiB3aWR0aD0iOTIiIHg9IjczMiIgeT0iMTI4NS44MjgxIi8+PHRleHQgZmlsbD0iIzAwMDAwMCIgZm9udC1mYW1pbHk9InNhbnMtc2VyaWYiIGZvbnQtc2l6ZT0iMTIiIGxlbmd0aEFkanVzdD0ic3BhY2luZyIgdGV4dExlbmd0aD0iNzIiIHg9Ijc0MiIgeT0iMTMwNy4xNzE5Ij4mIzIxNDU3OyYjMzY4NjU7JiMyMzQzNjsmIzI1MTA0OyYjMzY4OTA7JiMzMDY5Mzs8L3RleHQ+PGxpbmUgc3R5bGU9InN0cm9rZTojMDAwMDAwO3N0cm9rZS13aWR0aDoxLjU7IiB4MT0iNzA4IiB4Mj0iNzA4IiB5MT0iMTEiIHkyPSIxNTE3LjIwMzEiLz48cmVjdCBmaWxsPSIjRjFGMUYxIiBoZWlnaHQ9IjMyLjg0MzgiIHJ4PSIxMi41IiByeT0iMTIuNSIgc3R5bGU9InN0cm9rZTojMTgxODE4O3N0cm9rZS13aWR0aDowLjU7IiB3aWR0aD0iMTE2IiB4PSI4NTIiIHk9IjEyMzIuOTg0NCIvPjx0ZXh0IGZpbGw9IiMwMDAwMDAiIGZvbnQtZmFtaWx5PSJzYW5zLXNlcmlmIiBmb250LXNpemU9IjEyIiBsZW5ndGhBZGp1c3Q9InNwYWNpbmciIHRleHRMZW5ndGg9Ijk2IiB4PSI4NjIiIHk9IjEyNTQuMzI4MSI+JiMyMDg4OTsmIzIwODM3OyYjMzE1Nzk7JiMzNjg3MzsmIzMyNDY3OyYjMjY1MjQ7JiMyNTk2ODsmIzI1NDU0OzwvdGV4dD48bGluZSBzdHlsZT0ic3Ryb2tlOiMwMDAwMDA7c3Ryb2tlLXdpZHRoOjEuNTsiIHgxPSI4NDYiIHgyPSI4NDYiIHkxPSIxMSIgeTI9IjE1MTcuMjAzMSIvPjxyZWN0IGZpbGw9IiNGMUYxRjEiIGhlaWdodD0iMzIuODQzOCIgcng9IjEyLjUiIHJ5PSIxMi41IiBzdHlsZT0ic3Ryb2tlOiMxODE4MTg7c3Ryb2tlLXdpZHRoOjAuNTsiIHdpZHRoPSIxMTkiIHg9Ijk3OCIgeT0iMTMzOC42NzE5Ii8+PHRleHQgZmlsbD0iIzAwMDAwMCIgZm9udC1mYW1pbHk9InNhbnMtc2VyaWYiIGZvbnQtc2l6ZT0iMTIiIGxlbmd0aEFkanVzdD0ic3BhY2luZyIgdGV4dExlbmd0aD0iOTkiIHg9Ijk4OCIgeT0iMTM2MC4wMTU2Ij4mIzIwMTc0O0hpdmUmIzM0OTIwOyYjMjU1NTI7JiMyMTQ2MjsmIzI1OTY4OyYjMjU0NTQ7PC90ZXh0PjxyZWN0IGZpbGw9IiNGMUYxRjEiIGhlaWdodD0iMzIuODQzOCIgcng9IjEyLjUiIHJ5PSIxMi41IiBzdHlsZT0ic3Ryb2tlOiMxODE4MTg7c3Ryb2tlLXdpZHRoOjAuNTsiIHdpZHRoPSIxMTYiIHg9Ijk3OS41IiB5PSIxMzkxLjUxNTYiLz48dGV4dCBmaWxsPSIjMDAwMDAwIiBmb250LWZhbWlseT0ic2Fucy1zZXJpZiIgZm9udC1zaXplPSIxMiIgbGVuZ3RoQWRqdXN0PSJzcGFjaW5nIiB0ZXh0TGVuZ3RoPSI5NiIgeD0iOTg5LjUiIHk9IjE0MTIuODU5NCI+JiMyNTE5MTsmIzM0ODkyOyYjMjY2OTY7JiMyMDIxNDsmIzI1ODA1OyYjMjAzMTY7JiMyNTM1MTsmIzIwMTk2OzwvdGV4dD48bGluZSBzdHlsZT0ic3Ryb2tlOiMwMDAwMDA7c3Ryb2tlLXdpZHRoOjEuNTsiIHgxPSI5NzIiIHgyPSI5NzIiIHkxPSIxMSIgeTI9IjE1MTcuMjAzMSIvPjxsaW5lIHN0eWxlPSJzdHJva2U6IzAwMDAwMDtzdHJva2Utd2lkdGg6MS41OyIgeDE9IjExMDEiIHgyPSIxMTAxIiB5MT0iMTEiIHkyPSIxNTE3LjIwMzEiLz48bGluZSBzdHlsZT0ic3Ryb2tlOiMxODE4MTg7c3Ryb2tlLXdpZHRoOjEuMDsiIHgxPSI4NSIgeDI9Ijg1IiB5MT0iNTUuMjY1NiIgeTI9Ijc1LjI2NTYiLz48cG9seWdvbiBmaWxsPSIjMTgxODE4IiBwb2ludHM9IjgxLDY1LjI2NTYsODUsNzUuMjY1Niw4OSw2NS4yNjU2LDg1LDY5LjI2NTYiIHN0eWxlPSJzdHJva2U6IzE4MTgxODtzdHJva2Utd2lkdGg6MS4wOyIvPjxsaW5lIHN0eWxlPSJzdHJva2U6IzE4MTgxODtzdHJva2Utd2lkdGg6MS4wOyIgeDE9Ijg1IiB4Mj0iODUiIHkxPSIxMDguMTA5NCIgeTI9IjEyOC4xMDk0Ii8+PHBvbHlnb24gZmlsbD0iIzE4MTgxOCIgcG9pbnRzPSI4MSwxMTguMTA5NCw4NSwxMjguMTA5NCw4OSwxMTguMTA5NCw4NSwxMjIuMTA5NCIgc3R5bGU9InN0cm9rZTojMTgxODE4O3N0cm9rZS13aWR0aDoxLjA7Ii8+PGxpbmUgc3R5bGU9InN0cm9rZTojMTgxODE4O3N0cm9rZS13aWR0aDoxLjA7IiB4MT0iODUiIHgyPSI4NSIgeTE9IjkwMC43NjU2IiB5Mj0iOTIwLjc2NTYiLz48cG9seWdvbiBmaWxsPSIjMTgxODE4IiBwb2ludHM9IjgxLDkxMC43NjU2LDg1LDkyMC43NjU2LDg5LDkxMC43NjU2LDg1LDkxNC43NjU2IiBzdHlsZT0ic3Ryb2tlOiMxODE4MTg7c3Ryb2tlLXdpZHRoOjEuMDsiLz48bGluZSBzdHlsZT0ic3Ryb2tlOiMxODE4MTg7c3Ryb2tlLXdpZHRoOjEuMDsiIHgxPSI4NSIgeDI9Ijg1IiB5MT0iMTQ3Ny4yMDMxIiB5Mj0iMTQ5Ny4yMDMxIi8+PHBvbHlnb24gZmlsbD0iIzE4MTgxOCIgcG9pbnRzPSI4MSwxNDg3LjIwMzEsODUsMTQ5Ny4yMDMxLDg5LDE0ODcuMjAzMSw4NSwxNDkxLjIwMzEiIHN0eWxlPSJzdHJva2U6IzE4MTgxODtzdHJva2Utd2lkdGg6MS4wOyIvPjxsaW5lIHN0eWxlPSJzdHJva2U6IzE4MTgxODtzdHJva2Utd2lkdGg6MS4wOyIgeDE9IjM4MyIgeDI9IjM4MyIgeTE9IjIxMy43OTY5IiB5Mj0iMjMzLjc5NjkiLz48cG9seWdvbiBmaWxsPSIjMTgxODE4IiBwb2ludHM9IjM3OSwyMjMuNzk2OSwzODMsMjMzLjc5NjksMzg3LDIyMy43OTY5LDM4MywyMjcuNzk2OSIgc3R5bGU9InN0cm9rZTojMTgxODE4O3N0cm9rZS13aWR0aDoxLjA7Ii8+PGxpbmUgc3R5bGU9InN0cm9rZTojMTgxODE4O3N0cm9rZS13aWR0aDoxLjA7IiB4MT0iMzgzIiB4Mj0iMzgzIiB5MT0iNzk1LjA3ODEiIHkyPSI4MTUuMDc4MSIvPjxwb2x5Z29uIGZpbGw9IiMxODE4MTgiIHBvaW50cz0iMzc5LDgwNS4wNzgxLDM4Myw4MTUuMDc4MSwzODcsODA1LjA3ODEsMzgzLDgwOS4wNzgxIiBzdHlsZT0ic3Ryb2tlOiMxODE4MTg7c3Ryb2tlLXdpZHRoOjEuMDsiLz48bGluZSBzdHlsZT0ic3Ryb2tlOiMxODE4MTg7c3Ryb2tlLXdpZHRoOjEuMDsiIHgxPSIzODMiIHgyPSIzODMiIHkxPSIxMDU0LjQ1MzEiIHkyPSIxMDc0LjQ1MzEiLz48cG9seWdvbiBmaWxsPSIjMTgxODE4IiBwb2ludHM9IjM3OSwxMDY0LjQ1MzEsMzgzLDEwNzQuNDUzMSwzODcsMTA2NC40NTMxLDM4MywxMDY4LjQ1MzEiIHN0eWxlPSJzdHJva2U6IzE4MTgxODtzdHJva2Utd2lkdGg6MS4wOyIvPjxsaW5lIHN0eWxlPSJzdHJva2U6IzE4MTgxODtzdHJva2Utd2lkdGg6MS4wOyIgeDE9IjUzNi41IiB4Mj0iNTM2LjUiIHkxPSI0MjUuMTcxOSIgeTI9IjQ0NS4xNzE5Ii8+PHBvbHlnb24gZmlsbD0iIzE4MTgxOCIgcG9pbnRzPSI1MzIuNSw0MzUuMTcxOSw1MzYuNSw0NDUuMTcxOSw1NDAuNSw0MzUuMTcxOSw1MzYuNSw0MzkuMTcxOSIgc3R5bGU9InN0cm9rZTojMTgxODE4O3N0cm9rZS13aWR0aDoxLjA7Ii8+PGxpbmUgc3R5bGU9InN0cm9rZTojMTgxODE4O3N0cm9rZS13aWR0aDoxLjA7IiB4MT0iNTM2LjUiIHgyPSI1MzYuNSIgeTE9IjY4OS4zOTA2IiB5Mj0iNzA5LjM5MDYiLz48cG9seWdvbiBmaWxsPSIjMTgxODE4IiBwb2ludHM9IjUzMi41LDY5OS4zOTA2LDUzNi41LDcwOS4zOTA2LDU0MC41LDY5OS4zOTA2LDUzNi41LDcwMy4zOTA2IiBzdHlsZT0ic3Ryb2tlOiMxODE4MTg7c3Ryb2tlLXdpZHRoOjEuMDsiLz48bGluZSBzdHlsZT0ic3Ryb2tlOiMxODE4MTg7c3Ryb2tlLXdpZHRoOjEuMDsiIHgxPSI3NzgiIHgyPSI3NzgiIHkxPSIxMTYwLjE0MDYiIHkyPSIxMTgwLjE0MDYiLz48cG9seWdvbiBmaWxsPSIjMTgxODE4IiBwb2ludHM9Ijc3NCwxMTcwLjE0MDYsNzc4LDExODAuMTQwNiw3ODIsMTE3MC4xNDA2LDc3OCwxMTc0LjE0MDYiIHN0eWxlPSJzdHJva2U6IzE4MTgxODtzdHJva2Utd2lkdGg6MS4wOyIvPjxsaW5lIHN0eWxlPSJzdHJva2U6IzE4MTgxODtzdHJva2Utd2lkdGg6MS4wOyIgeDE9IjEwMzcuNSIgeDI9IjEwMzcuNSIgeTE9IjEzNzEuNTE1NiIgeTI9IjEzOTEuNTE1NiIvPjxwb2x5Z29uIGZpbGw9IiMxODE4MTgiIHBvaW50cz0iMTAzMy41LDEzODEuNTE1NiwxMDM3LjUsMTM5MS41MTU2LDEwNDEuNSwxMzgxLjUxNTYsMTAzNy41LDEzODUuNTE1NiIgc3R5bGU9InN0cm9rZTojMTgxODE4O3N0cm9rZS13aWR0aDoxLjA7Ii8+PGxpbmUgc3R5bGU9InN0cm9rZTojMTgxODE4O3N0cm9rZS13aWR0aDoxLjA7IiB4MT0iODUiIHgyPSI4NSIgeTE9IjE2MC45NTMxIiB5Mj0iMTY1Ljk1MzEiLz48bGluZSBzdHlsZT0ic3Ryb2tlOiMxODE4MTg7c3Ryb2tlLXdpZHRoOjEuMDsiIHgxPSI4NSIgeDI9IjM4MyIgeTE9IjE2NS45NTMxIiB5Mj0iMTY1Ljk1MzEiLz48bGluZSBzdHlsZT0ic3Ryb2tlOiMxODE4MTg7c3Ryb2tlLXdpZHRoOjEuMDsiIHgxPSIzODMiIHgyPSIzODMiIHkxPSIxNjUuOTUzMSIgeTI9IjE4MC45NTMxIi8+PHBvbHlnb24gZmlsbD0iIzE4MTgxOCIgcG9pbnRzPSIzNzksMTcwLjk1MzEsMzgzLDE4MC45NTMxLDM4NywxNzAuOTUzMSwzODMsMTc0Ljk1MzEiIHN0eWxlPSJzdHJva2U6IzE4MTgxODtzdHJva2Utd2lkdGg6MS4wOyIvPjxsaW5lIHN0eWxlPSJzdHJva2U6IzE4MTgxODtzdHJva2Utd2lkdGg6MS4wOyIgeDE9IjM4MyIgeDI9IjM4MyIgeTE9IjI2Ni42NDA2IiB5Mj0iMjcxLjY0MDYiLz48bGluZSBzdHlsZT0ic3Ryb2tlOiMxODE4MTg7c3Ryb2tlLXdpZHRoOjEuMDsiIHgxPSIzODMiIHgyPSI4NSIgeTE9IjI3MS42NDA2IiB5Mj0iMjcxLjY0MDYiLz48bGluZSBzdHlsZT0ic3Ryb2tlOiMxODE4MTg7c3Ryb2tlLXdpZHRoOjEuMDsiIHgxPSI4NSIgeDI9Ijg1IiB5MT0iMjcxLjY0MDYiIHkyPSIyODYuNjQwNiIvPjxwb2x5Z29uIGZpbGw9IiMxODE4MTgiIHBvaW50cz0iODEsMjc2LjY0MDYsODUsMjg2LjY0MDYsODksMjc2LjY0MDYsODUsMjgwLjY0MDYiIHN0eWxlPSJzdHJva2U6IzE4MTgxODtzdHJva2Utd2lkdGg6MS4wOyIvPjxsaW5lIHN0eWxlPSJzdHJva2U6IzE4MTgxODtzdHJva2Utd2lkdGg6MS4wOyIgeDE9Ijg1IiB4Mj0iODUiIHkxPSIzMTkuNDg0NCIgeTI9IjMyNC40ODQ0Ii8+PGxpbmUgc3R5bGU9InN0cm9rZTojMTgxODE4O3N0cm9rZS13aWR0aDoxLjA7IiB4MT0iODUiIHgyPSIzODMiIHkxPSIzMjQuNDg0NCIgeTI9IjMyNC40ODQ0Ii8+PGxpbmUgc3R5bGU9InN0cm9rZTojMTgxODE4O3N0cm9rZS13aWR0aDoxLjA7IiB4MT0iMzgzIiB4Mj0iMzgzIiB5MT0iMzI0LjQ4NDQiIHkyPSIzMzkuNDg0NCIvPjxwb2x5Z29uIGZpbGw9IiMxODE4MTgiIHBvaW50cz0iMzc5LDMyOS40ODQ0LDM4MywzMzkuNDg0NCwzODcsMzI5LjQ4NDQsMzgzLDMzMy40ODQ0IiBzdHlsZT0ic3Ryb2tlOiMxODE4MTg7c3Ryb2tlLXdpZHRoOjEuMDsiLz48bGluZSBzdHlsZT0ic3Ryb2tlOiMxODE4MTg7c3Ryb2tlLXdpZHRoOjEuMDsiIHgxPSIzODMiIHgyPSIzODMiIHkxPSIzNzIuMzI4MSIgeTI9IjM3Ny4zMjgxIi8+PGxpbmUgc3R5bGU9InN0cm9rZTojMTgxODE4O3N0cm9rZS13aWR0aDoxLjA7IiB4MT0iMzgzIiB4Mj0iNTM2LjUiIHkxPSIzNzcuMzI4MSIgeTI9IjM3Ny4zMjgxIi8+PGxpbmUgc3R5bGU9InN0cm9rZTojMTgxODE4O3N0cm9rZS13aWR0aDoxLjA7IiB4MT0iNTM2LjUiIHgyPSI1MzYuNSIgeTE9IjM3Ny4zMjgxIiB5Mj0iMzkyLjMyODEiLz48cG9seWdvbiBmaWxsPSIjMTgxODE4IiBwb2ludHM9IjUzMi41LDM4Mi4zMjgxLDUzNi41LDM5Mi4zMjgxLDU0MC41LDM4Mi4zMjgxLDUzNi41LDM4Ni4zMjgxIiBzdHlsZT0ic3Ryb2tlOiMxODE4MTg7c3Ryb2tlLXdpZHRoOjEuMDsiLz48bGluZSBzdHlsZT0ic3Ryb2tlOiMxODE4MTg7c3Ryb2tlLXdpZHRoOjEuMDsiIHgxPSI1MzYuNSIgeDI9IjUzNi41IiB5MT0iNDc4LjAxNTYiIHkyPSI0ODMuMDE1NiIvPjxsaW5lIHN0eWxlPSJzdHJva2U6IzE4MTgxODtzdHJva2Utd2lkdGg6MS4wOyIgeDE9IjUzNi41IiB4Mj0iMzgzIiB5MT0iNDgzLjAxNTYiIHkyPSI0ODMuMDE1NiIvPjxsaW5lIHN0eWxlPSJzdHJva2U6IzE4MTgxODtzdHJva2Utd2lkdGg6MS4wOyIgeDE9IjM4MyIgeDI9IjM4MyIgeTE9IjQ4My4wMTU2IiB5Mj0iNDk4LjAxNTYiLz48cG9seWdvbiBmaWxsPSIjMTgxODE4IiBwb2ludHM9IjM3OSw0ODguMDE1NiwzODMsNDk4LjAxNTYsMzg3LDQ4OC4wMTU2LDM4Myw0OTIuMDE1NiIgc3R5bGU9InN0cm9rZTojMTgxODE4O3N0cm9rZS13aWR0aDoxLjA7Ii8+PGxpbmUgc3R5bGU9InN0cm9rZTojMTgxODE4O3N0cm9rZS13aWR0aDoxLjA7IiB4MT0iMzgzIiB4Mj0iMzgzIiB5MT0iNTMwLjg1OTQiIHkyPSI1MzUuODU5NCIvPjxsaW5lIHN0eWxlPSJzdHJva2U6IzE4MTgxODtzdHJva2Utd2lkdGg6MS4wOyIgeDE9IjM4MyIgeDI9Ijg1IiB5MT0iNTM1Ljg1OTQiIHkyPSI1MzUuODU5NCIvPjxsaW5lIHN0eWxlPSJzdHJva2U6IzE4MTgxODtzdHJva2Utd2lkdGg6MS4wOyIgeDE9Ijg1IiB4Mj0iODUiIHkxPSI1MzUuODU5NCIgeTI9IjU1MC44NTk0Ii8+PHBvbHlnb24gZmlsbD0iIzE4MTgxOCIgcG9pbnRzPSI4MSw1NDAuODU5NCw4NSw1NTAuODU5NCw4OSw1NDAuODU5NCw4NSw1NDQuODU5NCIgc3R5bGU9InN0cm9rZTojMTgxODE4O3N0cm9rZS13aWR0aDoxLjA7Ii8+PGxpbmUgc3R5bGU9InN0cm9rZTojMTgxODE4O3N0cm9rZS13aWR0aDoxLjA7IiB4MT0iODUiIHgyPSI4NSIgeTE9IjU4My43MDMxIiB5Mj0iNTg4LjcwMzEiLz48bGluZSBzdHlsZT0ic3Ryb2tlOiMxODE4MTg7c3Ryb2tlLXdpZHRoOjEuMDsiIHgxPSI4NSIgeDI9IjM4MyIgeTE9IjU4OC43MDMxIiB5Mj0iNTg4LjcwMzEiLz48bGluZSBzdHlsZT0ic3Ryb2tlOiMxODE4MTg7c3Ryb2tlLXdpZHRoOjEuMDsiIHgxPSIzODMiIHgyPSIzODMiIHkxPSI1ODguNzAzMSIgeTI9IjYwMy43MDMxIi8+PHBvbHlnb24gZmlsbD0iIzE4MTgxOCIgcG9pbnRzPSIzNzksNTkzLjcwMzEsMzgzLDYwMy43MDMxLDM4Nyw1OTMuNzAzMSwzODMsNTk3LjcwMzEiIHN0eWxlPSJzdHJva2U6IzE4MTgxODtzdHJva2Utd2lkdGg6MS4wOyIvPjxsaW5lIHN0eWxlPSJzdHJva2U6IzE4MTgxODtzdHJva2Utd2lkdGg6MS4wOyIgeDE9IjM4MyIgeDI9IjM4MyIgeTE9IjYzNi41NDY5IiB5Mj0iNjQxLjU0NjkiLz48bGluZSBzdHlsZT0ic3Ryb2tlOiMxODE4MTg7c3Ryb2tlLXdpZHRoOjEuMDsiIHgxPSIzODMiIHgyPSI1MzYuNSIgeTE9IjY0MS41NDY5IiB5Mj0iNjQxLjU0NjkiLz48bGluZSBzdHlsZT0ic3Ryb2tlOiMxODE4MTg7c3Ryb2tlLXdpZHRoOjEuMDsiIHgxPSI1MzYuNSIgeDI9IjUzNi41IiB5MT0iNjQxLjU0NjkiIHkyPSI2NTYuNTQ2OSIvPjxwb2x5Z29uIGZpbGw9IiMxODE4MTgiIHBvaW50cz0iNTMyLjUsNjQ2LjU0NjksNTM2LjUsNjU2LjU0NjksNTQwLjUsNjQ2LjU0NjksNTM2LjUsNjUwLjU0NjkiIHN0eWxlPSJzdHJva2U6IzE4MTgxODtzdHJva2Utd2lkdGg6MS4wOyIvPjxsaW5lIHN0eWxlPSJzdHJva2U6IzE4MTgxODtzdHJva2Utd2lkdGg6MS4wOyIgeDE9IjUzNi41IiB4Mj0iNTM2LjUiIHkxPSI3NDIuMjM0NCIgeTI9Ijc0Ny4yMzQ0Ii8+PGxpbmUgc3R5bGU9InN0cm9rZTojMTgxODE4O3N0cm9rZS13aWR0aDoxLjA7IiB4MT0iNTM2LjUiIHgyPSIzODMiIHkxPSI3NDcuMjM0NCIgeTI9Ijc0Ny4yMzQ0Ii8+PGxpbmUgc3R5bGU9InN0cm9rZTojMTgxODE4O3N0cm9rZS13aWR0aDoxLjA7IiB4MT0iMzgzIiB4Mj0iMzgzIiB5MT0iNzQ3LjIzNDQiIHkyPSI3NjIuMjM0NCIvPjxwb2x5Z29uIGZpbGw9IiMxODE4MTgiIHBvaW50cz0iMzc5LDc1Mi4yMzQ0LDM4Myw3NjIuMjM0NCwzODcsNzUyLjIzNDQsMzgzLDc1Ni4yMzQ0IiBzdHlsZT0ic3Ryb2tlOiMxODE4MTg7c3Ryb2tlLXdpZHRoOjEuMDsiLz48bGluZSBzdHlsZT0ic3Ryb2tlOiMxODE4MTg7c3Ryb2tlLXdpZHRoOjEuMDsiIHgxPSIzODMiIHgyPSIzODMiIHkxPSI4NDcuOTIxOSIgeTI9Ijg1Mi45MjE5Ii8+PGxpbmUgc3R5bGU9InN0cm9rZTojMTgxODE4O3N0cm9rZS13aWR0aDoxLjA7IiB4MT0iMzgzIiB4Mj0iODUiIHkxPSI4NTIuOTIxOSIgeTI9Ijg1Mi45MjE5Ii8+PGxpbmUgc3R5bGU9InN0cm9rZTojMTgxODE4O3N0cm9rZS13aWR0aDoxLjA7IiB4MT0iODUiIHgyPSI4NSIgeTE9Ijg1Mi45MjE5IiB5Mj0iODY3LjkyMTkiLz48cG9seWdvbiBmaWxsPSIjMTgxODE4IiBwb2ludHM9IjgxLDg1Ny45MjE5LDg1LDg2Ny45MjE5LDg5LDg1Ny45MjE5LDg1LDg2MS45MjE5IiBzdHlsZT0ic3Ryb2tlOiMxODE4MTg7c3Ryb2tlLXdpZHRoOjEuMDsiLz48bGluZSBzdHlsZT0ic3Ryb2tlOiMxODE4MTg7c3Ryb2tlLXdpZHRoOjEuMDsiIHgxPSI2NTUiIHgyPSI2NTUiIHkxPSI5OTcuNjA5NCIgeTI9IjEwMDkuNjA5NCIvPjxsaW5lIHN0eWxlPSJzdHJva2U6IzE4MTgxODtzdHJva2Utd2lkdGg6MS4wOyIgeDE9IjY1NSIgeDI9IjM4MyIgeTE9IjEwMDkuNjA5NCIgeTI9IjEwMDkuNjA5NCIvPjxsaW5lIHN0eWxlPSJzdHJva2U6IzE4MTgxODtzdHJva2Utd2lkdGg6MS4wOyIgeDE9IjM4MyIgeDI9IjM4MyIgeTE9IjEwMDkuNjA5NCIgeTI9IjEwMjEuNjA5NCIvPjxwb2x5Z29uIGZpbGw9IiMxODE4MTgiIHBvaW50cz0iMzc5LDEwMTEuNjA5NCwzODMsMTAyMS42MDk0LDM4NywxMDExLjYwOTQsMzgzLDEwMTUuNjA5NCIgc3R5bGU9InN0cm9rZTojMTgxODE4O3N0cm9rZS13aWR0aDoxLjA7Ii8+PGxpbmUgc3R5bGU9InN0cm9rZTojMTgxODE4O3N0cm9rZS13aWR0aDoxLjA7IiB4MT0iODUiIHgyPSI4NSIgeTE9Ijk1My42MDk0IiB5Mj0iOTU4LjYwOTQiLz48bGluZSBzdHlsZT0ic3Ryb2tlOiMxODE4MTg7c3Ryb2tlLXdpZHRoOjEuMDsiIHgxPSI4NSIgeDI9IjY1NSIgeTE9Ijk1OC42MDk0IiB5Mj0iOTU4LjYwOTQiLz48bGluZSBzdHlsZT0ic3Ryb2tlOiMxODE4MTg7c3Ryb2tlLXdpZHRoOjEuMDsiIHgxPSI2NTUiIHgyPSI2NTUiIHkxPSI5NTguNjA5NCIgeTI9Ijk3My42MDk0Ii8+PHBvbHlnb24gZmlsbD0iIzE4MTgxOCIgcG9pbnRzPSI2NTEsOTYzLjYwOTQsNjU1LDk3My42MDk0LDY1OSw5NjMuNjA5NCw2NTUsOTY3LjYwOTQiIHN0eWxlPSJzdHJva2U6IzE4MTgxODtzdHJva2Utd2lkdGg6MS4wOyIvPjxsaW5lIHN0eWxlPSJzdHJva2U6IzE4MTgxODtzdHJva2Utd2lkdGg6MS4wOyIgeDE9IjM4MyIgeDI9IjM4MyIgeTE9IjExMDcuMjk2OSIgeTI9IjExMTIuMjk2OSIvPjxsaW5lIHN0eWxlPSJzdHJva2U6IzE4MTgxODtzdHJva2Utd2lkdGg6MS4wOyIgeDE9IjM4MyIgeDI9Ijc3OCIgeTE9IjExMTIuMjk2OSIgeTI9IjExMTIuMjk2OSIvPjxsaW5lIHN0eWxlPSJzdHJva2U6IzE4MTgxODtzdHJva2Utd2lkdGg6MS4wOyIgeDE9Ijc3OCIgeDI9Ijc3OCIgeTE9IjExMTIuMjk2OSIgeTI9IjExMjcuMjk2OSIvPjxwb2x5Z29uIGZpbGw9IiMxODE4MTgiIHBvaW50cz0iNzc0LDExMTcuMjk2OSw3NzgsMTEyNy4yOTY5LDc4MiwxMTE3LjI5NjksNzc4LDExMjEuMjk2OSIgc3R5bGU9InN0cm9rZTojMTgxODE4O3N0cm9rZS13aWR0aDoxLjA7Ii8+PGxpbmUgc3R5bGU9InN0cm9rZTojMTgxODE4O3N0cm9rZS13aWR0aDoxLjA7IiB4MT0iNzc4IiB4Mj0iNzc4IiB5MT0iMTIxMi45ODQ0IiB5Mj0iMTIxNy45ODQ0Ii8+PGxpbmUgc3R5bGU9InN0cm9rZTojMTgxODE4O3N0cm9rZS13aWR0aDoxLjA7IiB4MT0iNzc4IiB4Mj0iOTEwIiB5MT0iMTIxNy45ODQ0IiB5Mj0iMTIxNy45ODQ0Ii8+PGxpbmUgc3R5bGU9InN0cm9rZTojMTgxODE4O3N0cm9rZS13aWR0aDoxLjA7IiB4MT0iOTEwIiB4Mj0iOTEwIiB5MT0iMTIxNy45ODQ0IiB5Mj0iMTIzMi45ODQ0Ii8+PHBvbHlnb24gZmlsbD0iIzE4MTgxOCIgcG9pbnRzPSI5MDYsMTIyMi45ODQ0LDkxMCwxMjMyLjk4NDQsOTE0LDEyMjIuOTg0NCw5MTAsMTIyNi45ODQ0IiBzdHlsZT0ic3Ryb2tlOiMxODE4MTg7c3Ryb2tlLXdpZHRoOjEuMDsiLz48bGluZSBzdHlsZT0ic3Ryb2tlOiMxODE4MTg7c3Ryb2tlLXdpZHRoOjEuMDsiIHgxPSI5MTAiIHgyPSI5MTAiIHkxPSIxMjY1LjgyODEiIHkyPSIxMjcwLjgyODEiLz48bGluZSBzdHlsZT0ic3Ryb2tlOiMxODE4MTg7c3Ryb2tlLXdpZHRoOjEuMDsiIHgxPSI5MTAiIHgyPSI3NzgiIHkxPSIxMjcwLjgyODEiIHkyPSIxMjcwLjgyODEiLz48bGluZSBzdHlsZT0ic3Ryb2tlOiMxODE4MTg7c3Ryb2tlLXdpZHRoOjEuMDsiIHgxPSI3NzgiIHgyPSI3NzgiIHkxPSIxMjcwLjgyODEiIHkyPSIxMjg1LjgyODEiLz48cG9seWdvbiBmaWxsPSIjMTgxODE4IiBwb2ludHM9Ijc3NCwxMjc1LjgyODEsNzc4LDEyODUuODI4MSw3ODIsMTI3NS44MjgxLDc3OCwxMjc5LjgyODEiIHN0eWxlPSJzdHJva2U6IzE4MTgxODtzdHJva2Utd2lkdGg6MS4wOyIvPjxsaW5lIHN0eWxlPSJzdHJva2U6IzE4MTgxODtzdHJva2Utd2lkdGg6MS4wOyIgeDE9Ijc3OCIgeDI9Ijc3OCIgeTE9IjEzMTguNjcxOSIgeTI9IjEzMjMuNjcxOSIvPjxsaW5lIHN0eWxlPSJzdHJva2U6IzE4MTgxODtzdHJva2Utd2lkdGg6MS4wOyIgeDE9Ijc3OCIgeDI9IjEwMzcuNSIgeTE9IjEzMjMuNjcxOSIgeTI9IjEzMjMuNjcxOSIvPjxsaW5lIHN0eWxlPSJzdHJva2U6IzE4MTgxODtzdHJva2Utd2lkdGg6MS4wOyIgeDE9IjEwMzcuNSIgeDI9IjEwMzcuNSIgeTE9IjEzMjMuNjcxOSIgeTI9IjEzMzguNjcxOSIvPjxwb2x5Z29uIGZpbGw9IiMxODE4MTgiIHBvaW50cz0iMTAzMy41LDEzMjguNjcxOSwxMDM3LjUsMTMzOC42NzE5LDEwNDEuNSwxMzI4LjY3MTksMTAzNy41LDEzMzIuNjcxOSIgc3R5bGU9InN0cm9rZTojMTgxODE4O3N0cm9rZS13aWR0aDoxLjA7Ii8+PGxpbmUgc3R5bGU9InN0cm9rZTojMTgxODE4O3N0cm9rZS13aWR0aDoxLjA7IiB4MT0iMTAzNy41IiB4Mj0iMTAzNy41IiB5MT0iMTQyNC4zNTk0IiB5Mj0iMTQyOS4zNTk0Ii8+PGxpbmUgc3R5bGU9InN0cm9rZTojMTgxODE4O3N0cm9rZS13aWR0aDoxLjA7IiB4MT0iMTAzNy41IiB4Mj0iODUiIHkxPSIxNDI5LjM1OTQiIHkyPSIxNDI5LjM1OTQiLz48bGluZSBzdHlsZT0ic3Ryb2tlOiMxODE4MTg7c3Ryb2tlLXdpZHRoOjEuMDsiIHgxPSI4NSIgeDI9Ijg1IiB5MT0iMTQyOS4zNTk0IiB5Mj0iMTQ0NC4zNTk0Ii8+PHBvbHlnb24gZmlsbD0iIzE4MTgxOCIgcG9pbnRzPSI4MSwxNDM0LjM1OTQsODUsMTQ0NC4zNTk0LDg5LDE0MzQuMzU5NCw4NSwxNDM4LjM1OTQiIHN0eWxlPSJzdHJva2U6IzE4MTgxODtzdHJva2Utd2lkdGg6MS4wOyIvPjx0ZXh0IGZpbGw9IiMwMDAwMDAiIGZvbnQtZmFtaWx5PSJzYW5zLXNlcmlmIiBmb250LXNpemU9IjE4IiBsZW5ndGhBZGp1c3Q9InNwYWNpbmciIHRleHRMZW5ndGg9IjcyIiB4PSI0OCIgeT0iMjguMDE1NiI+JiMzNjgxNjsmIzMzODI5OyYjMjAxNTQ7JiMyMTU5Mjs8L3RleHQ+PHRleHQgZmlsbD0iIzAwMDAwMCIgZm9udC1mYW1pbHk9InNhbnMtc2VyaWYiIGZvbnQtc2l6ZT0iMTgiIGxlbmd0aEFkanVzdD0ic3BhY2luZyIgdGV4dExlbmd0aD0iNjMiIHg9IjI3OSIgeT0iMjguMDE1NiI+Q1RTJiMzMTk5NTsmIzMyNDc5OzwvdGV4dD48dGV4dCBmaWxsPSIjMDAwMDAwIiBmb250LWZhbWlseT0ic2Fucy1zZXJpZiIgZm9udC1zaXplPSIxOCIgbGVuZ3RoQWRqdXN0PSJzcGFjaW5nIiB0ZXh0TGVuZ3RoPSIxMDgiIHg9IjQ4MS41IiB5PSIyOC4wMTU2Ij5jY2wtb2xzbSBTREs8L3RleHQ+PHRleHQgZmlsbD0iIzAwMDAwMCIgZm9udC1mYW1pbHk9InNhbnMtc2VyaWYiIGZvbnQtc2l6ZT0iMTgiIGxlbmd0aEFkanVzdD0ic3BhY2luZyIgdGV4dExlbmd0aD0iNzIiIHg9IjYxOS41IiB5PSIyOC4wMTU2Ij4mIzIzNDU3OyYjMjUyMDk7JiMzMTk5NTsmIzMyNDc5OzwvdGV4dD48dGV4dCBmaWxsPSIjMDAwMDAwIiBmb250LWZhbWlseT0ic2Fucy1zZXJpZiIgZm9udC1zaXplPSIxOCIgbGVuZ3RoQWRqdXN0PSJzcGFjaW5nIiB0ZXh0TGVuZ3RoPSI5MCIgeD0iNzMyIiB5PSIyOC4wMTU2Ij5QTE9MU00mIzMxOTk1OyYjMzI0Nzk7PC90ZXh0Pjx0ZXh0IGZpbGw9IiMwMDAwMDAiIGZvbnQtZmFtaWx5PSJzYW5zLXNlcmlmIiBmb250LXNpemU9IjE4IiBsZW5ndGhBZGp1c3Q9InNwYWNpbmciIHRleHRMZW5ndGg9IjM2IiB4PSI4OTEiIHk9IjI4LjAxNTYiPkhpdmU8L3RleHQ+PHRleHQgZmlsbD0iIzAwMDAwMCIgZm9udC1mYW1pbHk9InNhbnMtc2VyaWYiIGZvbnQtc2l6ZT0iMTgiIGxlbmd0aEFkanVzdD0ic3BhY2luZyIgdGV4dExlbmd0aD0iNjMiIHg9IjEwMDUiIHk9IjI4LjAxNTYiPkNUUy1CRFA8L3RleHQ+PCEtLVNSQz1bWExGREpYZkg1RHhGS3FuU3dTOE5XNE5Kb2c5ZlJKTVhCejNPQ0lNWHExSkk1R2tHbG00NjYwaHVLcjBTUDhHazBBcUxYSWRtQ2RGa2xWQ01GU0NUNTk2YTZ2QlhkRkVUeC1WUzI5a2dKRE5EcUdYQW5uNFg1Rnh1QklvdXc4YTF1LWhNMW8tekNRWkhTMGlrRGdyMUtjU3ozVUdWTFo5Rm5wckJrdEtCR2tJWEFJQXU4N2xFbmNFWW9RT244NTYzak1OTUphNWpXbERtTlFNajRJelhDbUFId1hOOXpzbzhmbkhTejYwOFFNRURSdzdUY1hORGk3TzJ2OUVydk50aUFhdWhkUnF6X3NSRzdfZVlVWnJsSUs2N3VlTFIyMEozYWtZTnppQ2thSkhxcmN6a1VMd0l5cEpqSlkwUHZ2aUhRdDdJZmctTXhCUHc3aDhRd3otSHdtQy1DZkRWV1RnUFdvMFZDUXNwcDhOU19vUURDa3owbllKdFlyT0x3eEl2R2cxSmRZZFowLUhLR3JfLUItIC05QzR1SHYxR3I0akdlYXBGeUpSMkJ2N0RYOUREY2NpOU5PRy1laWVOZko0ZWVaNU9RSDVPdm8xbGxwZGlFejRvUzRaRTdJTDBFVUgwaVZTQ3pYNTd2OExsZEFmZTlaN3M1UURRUk9EYlhTWkltWmx4VzkyY2d2Z1c1VTBvUDhSY0RxS3hFZGtKVnktTS1WTjZUX3NENVZ4OWYtaU02NkZ1aTFTSHJTanBWNDRIbmFRV2VPZVdBd1VlRkY3VXRUeFF6eHpvMnYwejlZQURVc1lFWFNGMmg4MEstIC1WUU5URDlRWUhKUVlvSFAtbkFBOVBpTEh0Z3FmQTJKb2UydGNiQ0RZZFVzNHNlVmlYcnE0LXhaeUJVODRRREZmYzdXR1RhR2h0dFY5VmxFS1lWdWJkWi1DeF9oWnN6WFFHbGtqZzhudzJhTzRpZ2QzVHM5UGxFTFBuVmhmYjZtR1Y0VXFLZWU3aXcxdmY3cGZyWkVjLUN3S1RBY3FMZ0gzM3VHTWl5djByYVRJYmN0UlN1X10tLT48L2c+PC9zdmc+;" vertex="1" parent="1">
            <mxGeometry x="-90" y="-730" width="1122" height="1529" as="geometry" />
          </mxCell>
        </UserObject>
      </root>
    </mxGraphModel>
  </diagram>
  <diagram id="VDhMdGYvo_AsG0vYcM0f" name="第 2 页">
    <mxGraphModel dx="1837" dy="1796" grid="1" gridSize="10" guides="1" tooltips="1" connect="1" arrows="1" fold="1" page="1" pageScale="1" pageWidth="827" pageHeight="1169" math="0" shadow="0">
      <root>
        <mxCell id="0" />
        <mxCell id="1" parent="0" />
        <UserObject label="" plantUmlData="{&#xa;  &quot;data&quot;: &quot;@startuml\nskinparam defaultFontName \&quot;SimSun\&quot;\nskinparam activityBackgroundColor #F5F5F5\nskinparam activityBorderColor #4A90E2\n\n|运营人员|\nstart\n:查看案件总览;\n\n|CTS系统|\n:配置筛选规则;\nnote right\n ​**关键操作**\n 1.调用ccl-olsm SDK查询CDA标签\n 2.试算请求触发PLOLSM交互\nend note\n\n|PLOLSM-web|\n:执行试算策略;\n-&gt;调用IDOS系统进行试算; #green\n\n|CTS系统|\n:配置分组规则;\nnote right\n ​**数据结构**\n 1.查询标签元数据\n 2.组装分组结构树\n 3.规则持久化落库\nend note\n\n:配置案件操作;\n:配置执行时间;\n\nif (审批通过?) then (是)\n  :同步规则至PLOLSM系统;\nelse (否)\n  stop\nendif\n\n|PLOLSM系统|\n:接收执行信号;\n:执行筛数任务;\n-&gt;写入Hive表;\n\n|CTS-BDP|\n:读取Hive数据;\n:执行案件操作;\n\nstop\n@enduml&quot;,&#xa;  &quot;format&quot;: &quot;svg&quot;&#xa;}" id="Zu2ZQegkaTrQBzp1Uz3h-1">
          <mxCell style="shape=image;noLabel=1;verticalAlign=top;aspect=fixed;imageAspect=0;image=data:image/svg+xml,PD94bWwgdmVyc2lvbj0iMS4wIiBlbmNvZGluZz0idXMtYXNjaWkiIHN0YW5kYWxvbmU9Im5vIj8+PHN2ZyB4bWxucz0iaHR0cDovL3d3dy53My5vcmcvMjAwMC9zdmciIHhtbG5zOnhsaW5rPSJodHRwOi8vd3d3LnczLm9yZy8xOTk5L3hsaW5rIiBjb250ZW50U3R5bGVUeXBlPSJ0ZXh0L2NzcyIgaGVpZ2h0PSI3OTZweCIgcHJlc2VydmVBc3BlY3RSYXRpbz0ibm9uZSIgc3R5bGU9IndpZHRoOjk1NnB4O2hlaWdodDo3OTZweDtiYWNrZ3JvdW5kOiNGRkZGRkY7IiB2ZXJzaW9uPSIxLjEiIHZpZXdCb3g9IjAgMCA5NTYgNzk2IiB3aWR0aD0iOTU2cHgiIHpvb21BbmRQYW49Im1hZ25pZnkiPjxkZWZzLz48Zz48cmVjdCBmaWxsPSJub25lIiBoZWlnaHQ9IjE5LjI2NTYiIHN0eWxlPSJzdHJva2U6bm9uZTtzdHJva2Utd2lkdGg6MS4wOyIgd2lkdGg9IjkyMy41IiB4PSIxNSIgeT0iMTEiLz48ZWxsaXBzZSBjeD0iNjciIGN5PSI0NS4yNjU2IiBmaWxsPSIjMjIyMjIyIiByeD0iMTAiIHJ5PSIxMCIgc3R5bGU9InN0cm9rZTojMjIyMjIyO3N0cm9rZS13aWR0aDoxLjA7Ii8+PHJlY3QgZmlsbD0iI0Y1RjVGNSIgaGVpZ2h0PSIzMi44NDM4IiByeD0iMTIuNSIgcnk9IjEyLjUiIHN0eWxlPSJzdHJva2U6IzRBOTBFMjtzdHJva2Utd2lkdGg6MC41OyIgd2lkdGg9IjkyIiB4PSIyMSIgeT0iNzUuMjY1NiIvPjx0ZXh0IGZpbGw9IiMwMDAwMDAiIGZvbnQtZmFtaWx5PSJTaW1TdW4iIGZvbnQtc2l6ZT0iMTIiIGxlbmd0aEFkanVzdD0ic3BhY2luZyIgdGV4dExlbmd0aD0iNzIiIHg9IjMxIiB5PSI5Ni42MDk0Ij4mIzI2NTk3OyYjMzA0NzU7JiMyNjY5NjsmIzIwMjE0OyYjMjQ2MzU7JiMzNTI3Mjs8L3RleHQ+PGxpbmUgc3R5bGU9InN0cm9rZTojMDAwMDAwO3N0cm9rZS13aWR0aDoxLjU7IiB4MT0iMTUiIHgyPSIxNSIgeTE9IjExIiB5Mj0iNzg0LjE4NTUiLz48cGF0aCBkPSJNMjM1LDExOC42NjAyIEwyMzUsMTQwLjUzMTMgTDIxNSwxNDQuNTMxMyBMMjM1LDE0OC41MzEzIEwyMzUsMTcwLjQwMjMgQTAsMCAwIDAgMCAyMzUsMTcwLjQwMjMgTDQ0OSwxNzAuNDAyMyBBMCwwIDAgMCAwIDQ0OSwxNzAuNDAyMyBMNDQ5LDEyOC42NjAyIEw0MzksMTE4LjY2MDIgTDIzNSwxMTguNjYwMiBBMCwwIDAgMCAwIDIzNSwxMTguNjYwMiAiIGZpbGw9IiNGRUZGREQiIHN0eWxlPSJzdHJva2U6IzE4MTgxODtzdHJva2Utd2lkdGg6MC41OyIvPjxwYXRoIGQ9Ik00MzksMTE4LjY2MDIgTDQzOSwxMjguNjYwMiBMNDQ5LDEyOC42NjAyIEw0MzksMTE4LjY2MDIgIiBmaWxsPSIjRkVGRkREIiBzdHlsZT0ic3Ryb2tlOiMxODE4MTg7c3Ryb2tlLXdpZHRoOjAuNTsiLz48dGV4dCBmaWxsPSIjMDAwMDAwIiBmb250LWZhbWlseT0iU2ltU3VuIiBmb250LXNpemU9IjEzIiBsZW5ndGhBZGp1c3Q9InNwYWNpbmciIHRleHRMZW5ndGg9IjEzIiB4PSIyNDEiIHk9IjEzNS45NDkyIj4mIzgyMDM7PC90ZXh0Pjx0ZXh0IGZpbGw9IiMwMDAwMDAiIGZvbnQtZmFtaWx5PSJTaW1TdW4iIGZvbnQtc2l6ZT0iMTMiIGZvbnQtd2VpZ2h0PSJib2xkIiBsZW5ndGhBZGp1c3Q9InNwYWNpbmciIHRleHRMZW5ndGg9IjUyIiB4PSIyNTQiIHk9IjEzNS45NDkyIj4mIzIwODUxOyYjMzgxOTA7JiMyNTgwNTsmIzIwMzE2OzwvdGV4dD48dGV4dCBmaWxsPSIjMDAwMDAwIiBmb250LWZhbWlseT0iU2ltU3VuIiBmb250LXNpemU9IjEzIiBsZW5ndGhBZGp1c3Q9InNwYWNpbmciIHRleHRMZW5ndGg9IjE5MyIgeD0iMjQxIiB5PSIxNDkuODYzMyI+MS4mIzM1ODQzOyYjMjk5OTI7Y2NsLW9sc20gU0RLJiMyNjU5NzsmIzM1ODEwO0NEQSYjMjY2MzE7JiMzMTYxNDs8L3RleHQ+PHRleHQgZmlsbD0iIzAwMDAwMCIgZm9udC1mYW1pbHk9IlNpbVN1biIgZm9udC1zaXplPSIxMyIgbGVuZ3RoQWRqdXN0PSJzcGFjaW5nIiB0ZXh0TGVuZ3RoPSIxNTkiIHg9IjI0MSIgeT0iMTYzLjc3NzMiPjIuJiMzNTc5NzsmIzMxNjM5OyYjMzU4MzE7JiMyNzcxNDsmIzM1MzAyOyYjMjE0NTc7UExPTFNNJiMyMDEzMjsmIzIwMTE0OzwvdGV4dD48cmVjdCBmaWxsPSIjRjVGNUY1IiBoZWlnaHQ9IjMyLjg0MzgiIHJ4PSIxMi41IiByeT0iMTIuNSIgc3R5bGU9InN0cm9rZTojNEE5MEUyO3N0cm9rZS13aWR0aDowLjU7IiB3aWR0aD0iOTIiIHg9IjEyMyIgeT0iMTI4LjEwOTQiLz48dGV4dCBmaWxsPSIjMDAwMDAwIiBmb250LWZhbWlseT0iU2ltU3VuIiBmb250LXNpemU9IjEyIiBsZW5ndGhBZGp1c3Q9InNwYWNpbmciIHRleHRMZW5ndGg9IjcyIiB4PSIxMzMiIHk9IjE0OS40NTMxIj4mIzM3MTk3OyYjMzI2MjI7JiMzMTU3OTsmIzM2ODczOyYjMzUyNjg7JiMyMTAxNzs8L3RleHQ+PGxpbmUgc3R5bGU9InN0cm9rZTojMDAwMDAwO3N0cm9rZS13aWR0aDoxLjU7IiB4MT0iMTE3IiB4Mj0iMTE3IiB5MT0iMTEiIHkyPSI3ODQuMTg1NSIvPjxwYXRoIGQ9Ik01OTgsMTgwLjQwMjMgTDU5OCwyMDkuMjMwNSBMNTc4LDIxMy4yMzA1IEw1OTgsMjE3LjIzMDUgTDU5OCwyNDYuMDU4NiBBMCwwIDAgMCAwIDU5OCwyNDYuMDU4NiBMNzIzLDI0Ni4wNTg2IEEwLDAgMCAwIDAgNzIzLDI0Ni4wNTg2IEw3MjMsMTkwLjQwMjMgTDcxMywxODAuNDAyMyBMNTk4LDE4MC40MDIzIEEwLDAgMCAwIDAgNTk4LDE4MC40MDIzICIgZmlsbD0iI0ZFRkZERCIgc3R5bGU9InN0cm9rZTojMTgxODE4O3N0cm9rZS13aWR0aDowLjU7Ii8+PHBhdGggZD0iTTcxMywxODAuNDAyMyBMNzEzLDE5MC40MDIzIEw3MjMsMTkwLjQwMjMgTDcxMywxODAuNDAyMyAiIGZpbGw9IiNGRUZGREQiIHN0eWxlPSJzdHJva2U6IzE4MTgxODtzdHJva2Utd2lkdGg6MC41OyIvPjx0ZXh0IGZpbGw9IiMwMDAwMDAiIGZvbnQtZmFtaWx5PSJTaW1TdW4iIGZvbnQtc2l6ZT0iMTMiIGxlbmd0aEFkanVzdD0ic3BhY2luZyIgdGV4dExlbmd0aD0iMTMiIHg9IjYwNCIgeT0iMTk3LjY5MTQiPiYjODIwMzs8L3RleHQ+PHRleHQgZmlsbD0iIzAwMDAwMCIgZm9udC1mYW1pbHk9IlNpbVN1biIgZm9udC1zaXplPSIxMyIgZm9udC13ZWlnaHQ9ImJvbGQiIGxlbmd0aEFkanVzdD0ic3BhY2luZyIgdGV4dExlbmd0aD0iNTIiIHg9IjYxNyIgeT0iMTk3LjY5MTQiPiYjMjU5Njg7JiMyNTQ1NDsmIzMyNDY3OyYjMjY1MDA7PC90ZXh0Pjx0ZXh0IGZpbGw9IiMwMDAwMDAiIGZvbnQtZmFtaWx5PSJTaW1TdW4iIGZvbnQtc2l6ZT0iMTMiIGxlbmd0aEFkanVzdD0ic3BhY2luZyIgdGV4dExlbmd0aD0iMTA0IiB4PSI2MDQiIHk9IjIxMS42MDU1Ij4xLiYjMjY1OTc7JiMzNTgxMDsmIzI2NjMxOyYjMzE2MTQ7JiMyMDgwMzsmIzI1OTY4OyYjMjU0NTQ7PC90ZXh0Pjx0ZXh0IGZpbGw9IiMwMDAwMDAiIGZvbnQtZmFtaWx5PSJTaW1TdW4iIGZvbnQtc2l6ZT0iMTMiIGxlbmd0aEFkanVzdD0ic3BhY2luZyIgdGV4dExlbmd0aD0iMTA0IiB4PSI2MDQiIHk9IjIyNS41MTk1Ij4yLiYjMzI0NTI7JiMzNTAxMzsmIzIwOTk4OyYjMzI0NTI7JiMzMjQ2NzsmIzI2NTAwOyYjMjY2NDE7PC90ZXh0Pjx0ZXh0IGZpbGw9IiMwMDAwMDAiIGZvbnQtZmFtaWx5PSJTaW1TdW4iIGZvbnQtc2l6ZT0iMTMiIGxlbmd0aEFkanVzdD0ic3BhY2luZyIgdGV4dExlbmd0aD0iMTA0IiB4PSI2MDQiIHk9IjIzOS40MzM2Ij4zLiYjMzUyNjg7JiMyMTAxNzsmIzI1MzQ1OyYjMjAwMzc7JiMyMTI3MDsmIzMzODUzOyYjMjQyMTE7PC90ZXh0PjxyZWN0IGZpbGw9IiNGNUY1RjUiIGhlaWdodD0iMzIuODQzOCIgcng9IjEyLjUiIHJ5PSIxMi41IiBzdHlsZT0ic3Ryb2tlOiM0QTkwRTI7c3Ryb2tlLXdpZHRoOjAuNTsiIHdpZHRoPSI5MiIgeD0iNDg2IiB5PSIxOTYuODA4NiIvPjx0ZXh0IGZpbGw9IiMwMDAwMDAiIGZvbnQtZmFtaWx5PSJTaW1TdW4iIGZvbnQtc2l6ZT0iMTIiIGxlbmd0aEFkanVzdD0ic3BhY2luZyIgdGV4dExlbmd0aD0iNzIiIHg9IjQ5NiIgeT0iMjE4LjE1MjMiPiYjMjUxOTE7JiMzNDg5MjsmIzM1Nzk3OyYjMzE2Mzk7JiMzMTU3NDsmIzMwMDUzOzwvdGV4dD48cmVjdCBmaWxsPSIjRjVGNUY1IiBoZWlnaHQ9IjMyLjg0MzgiIHJ4PSIxMi41IiByeT0iMTIuNSIgc3R5bGU9InN0cm9rZTojNEE5MEUyO3N0cm9rZS13aWR0aDowLjU7IiB3aWR0aD0iOTIiIHg9IjQ4NiIgeT0iMzI2LjU3NDIiLz48dGV4dCBmaWxsPSIjMDAwMDAwIiBmb250LWZhbWlseT0iU2ltU3VuIiBmb250LXNpemU9IjEyIiBsZW5ndGhBZGp1c3Q9InNwYWNpbmciIHRleHRMZW5ndGg9IjcyIiB4PSI0OTYiIHk9IjM0Ny45MTgiPiYjMzcxOTc7JiMzMjYyMjsmIzI2Njk2OyYjMjAyMTQ7JiMyNTgwNTsmIzIwMzE2OzwvdGV4dD48cmVjdCBmaWxsPSIjRjVGNUY1IiBoZWlnaHQ9IjMyLjg0MzgiIHJ4PSIxMi41IiByeT0iMTIuNSIgc3R5bGU9InN0cm9rZTojNEE5MEUyO3N0cm9rZS13aWR0aDowLjU7IiB3aWR0aD0iOTIiIHg9IjQ4NiIgeT0iMzc5LjQxOCIvPjx0ZXh0IGZpbGw9IiMwMDAwMDAiIGZvbnQtZmFtaWx5PSJTaW1TdW4iIGZvbnQtc2l6ZT0iMTIiIGxlbmd0aEFkanVzdD0ic3BhY2luZyIgdGV4dExlbmd0aD0iNzIiIHg9IjQ5NiIgeT0iNDAwLjc2MTciPiYjMzcxOTc7JiMzMjYyMjsmIzI1MTkxOyYjMzQ4OTI7JiMyNjEwMjsmIzM4Mzg4OzwvdGV4dD48cmVjdCBmaWxsPSIjRjVGNUY1IiBoZWlnaHQ9IjMyLjg0MzgiIHJ4PSIxMi41IiByeT0iMTIuNSIgc3R5bGU9InN0cm9rZTojNEE5MEUyO3N0cm9rZS13aWR0aDowLjU7IiB3aWR0aD0iMTQ0IiB4PSI0NjAiIHk9IjQ4MC4yNjE3Ii8+PHRleHQgZmlsbD0iIzAwMDAwMCIgZm9udC1mYW1pbHk9IlNpbVN1biIgZm9udC1zaXplPSIxMiIgbGVuZ3RoQWRqdXN0PSJzcGFjaW5nIiB0ZXh0TGVuZ3RoPSIxMjQiIHg9IjQ3MCIgeT0iNTAxLjYwNTUiPiYjMjE1MTY7JiMyNzQ5MzsmIzM1MjY4OyYjMjEwMTc7JiMzMzI2NztQTE9MU00mIzMxOTk1OyYjMzI0Nzk7PC90ZXh0Pjxwb2x5Z29uIGZpbGw9IiNGNUY1RjUiIHBvaW50cz0iNTA3LDQzMi4yNjE3LDU1Nyw0MzIuMjYxNyw1NjksNDQ0LjI2MTcsNTU3LDQ1Ni4yNjE3LDUwNyw0NTYuMjYxNyw0OTUsNDQ0LjI2MTcsNTA3LDQzMi4yNjE3IiBzdHlsZT0ic3Ryb2tlOiM0QTkwRTI7c3Ryb2tlLXdpZHRoOjAuNTsiLz48dGV4dCBmaWxsPSIjMDAwMDAwIiBmb250LWZhbWlseT0iU2ltU3VuIiBmb250LXNpemU9IjExIiBsZW5ndGhBZGp1c3Q9InNwYWNpbmciIHRleHRMZW5ndGg9IjExIiB4PSI1MzYiIHk9IjQ2Ni42NjAyIj4mIzI2MTU5OzwvdGV4dD48dGV4dCBmaWxsPSIjMDAwMDAwIiBmb250LWZhbWlseT0iU2ltU3VuIiBmb250LXNpemU9IjExIiBsZW5ndGhBZGp1c3Q9InNwYWNpbmciIHRleHRMZW5ndGg9IjUwIiB4PSI1MDciIHk9IjQ0OC43NzM0Ij4mIzIzNDU3OyYjMjUyMDk7JiMzNjg5MDsmIzM2ODA3Oz88L3RleHQ+PHRleHQgZmlsbD0iIzAwMDAwMCIgZm9udC1mYW1pbHk9IlNpbVN1biIgZm9udC1zaXplPSIxMSIgbGVuZ3RoQWRqdXN0PSJzcGFjaW5nIiB0ZXh0TGVuZ3RoPSIxMSIgeD0iNTY5IiB5PSI0NDIuODg2NyI+JiMyMTU0Mjs8L3RleHQ+PGVsbGlwc2UgY3g9IjYwMiIgY3k9IjQ0NC4yNjE3IiBmaWxsPSJub25lIiByeD0iMTEiIHJ5PSIxMSIgc3R5bGU9InN0cm9rZTojMjIyMjIyO3N0cm9rZS13aWR0aDoxLjA7Ii8+PGVsbGlwc2UgY3g9IjYwMiIgY3k9IjQ0NC4yNjE3IiBmaWxsPSIjMjIyMjIyIiByeD0iNiIgcnk9IjYiIHN0eWxlPSJzdHJva2U6IzIyMjIyMjtzdHJva2Utd2lkdGg6MS4wOyIvPjxsaW5lIHN0eWxlPSJzdHJva2U6IzAwMDAwMDtzdHJva2Utd2lkdGg6MS41OyIgeDE9IjQ1NCIgeDI9IjQ1NCIgeTE9IjExIiB5Mj0iNzg0LjE4NTUiLz48cmVjdCBmaWxsPSIjRjVGNUY1IiBoZWlnaHQ9IjMyLjg0MzgiIHJ4PSIxMi41IiByeT0iMTIuNSIgc3R5bGU9InN0cm9rZTojNEE5MEUyO3N0cm9rZS13aWR0aDowLjU7IiB3aWR0aD0iOTIiIHg9IjczNCIgeT0iNTMzLjEwNTUiLz48dGV4dCBmaWxsPSIjMDAwMDAwIiBmb250LWZhbWlseT0iU2ltU3VuIiBmb250LXNpemU9IjEyIiBsZW5ndGhBZGp1c3Q9InNwYWNpbmciIHRleHRMZW5ndGg9IjcyIiB4PSI3NDQiIHk9IjU1NC40NDkyIj4mIzI1NTA5OyYjMjU5MTA7JiMyNTE5MTsmIzM0ODkyOyYjMjA0NDk7JiMyMTQ5NTs8L3RleHQ+PHJlY3QgZmlsbD0iI0Y1RjVGNSIgaGVpZ2h0PSIzMi44NDM4IiByeD0iMTIuNSIgcnk9IjEyLjUiIHN0eWxlPSJzdHJva2U6IzRBOTBFMjtzdHJva2Utd2lkdGg6MC41OyIgd2lkdGg9IjkyIiB4PSI3MzQiIHk9IjU4NS45NDkyIi8+PHRleHQgZmlsbD0iIzAwMDAwMCIgZm9udC1mYW1pbHk9IlNpbVN1biIgZm9udC1zaXplPSIxMiIgbGVuZ3RoQWRqdXN0PSJzcGFjaW5nIiB0ZXh0TGVuZ3RoPSI3MiIgeD0iNzQ0IiB5PSI2MDcuMjkzIj4mIzI1MTkxOyYjMzQ4OTI7JiMzMTU3OTsmIzI1OTY4OyYjMjAyMTk7JiMyMTE1Mzs8L3RleHQ+PGxpbmUgc3R5bGU9InN0cm9rZTojMDAwMDAwO3N0cm9rZS13aWR0aDoxLjU7IiB4MT0iNzI4IiB4Mj0iNzI4IiB5MT0iMTEiIHkyPSI3ODQuMTg1NSIvPjxyZWN0IGZpbGw9IiNGNUY1RjUiIGhlaWdodD0iMzIuODQzOCIgcng9IjEyLjUiIHJ5PSIxMi41IiBzdHlsZT0ic3Ryb2tlOiM0QTkwRTI7c3Ryb2tlLXdpZHRoOjAuNTsiIHdpZHRoPSI5NSIgeD0iODM2IiB5PSI2NTYuNDk4Ii8+PHRleHQgZmlsbD0iIzAwMDAwMCIgZm9udC1mYW1pbHk9IlNpbVN1biIgZm9udC1zaXplPSIxMiIgbGVuZ3RoQWRqdXN0PSJzcGFjaW5nIiB0ZXh0TGVuZ3RoPSI3NSIgeD0iODQ2IiB5PSI2NzcuODQxOCI+JiMzNTgzNTsmIzIxNDYyO0hpdmUmIzI1OTY4OyYjMjU0NTQ7PC90ZXh0PjxyZWN0IGZpbGw9IiNGNUY1RjUiIGhlaWdodD0iMzIuODQzOCIgcng9IjEyLjUiIHJ5PSIxMi41IiBzdHlsZT0ic3Ryb2tlOiM0QTkwRTI7c3Ryb2tlLXdpZHRoOjAuNTsiIHdpZHRoPSI5MiIgeD0iODM3LjUiIHk9IjcwOS4zNDE4Ii8+PHRleHQgZmlsbD0iIzAwMDAwMCIgZm9udC1mYW1pbHk9IlNpbVN1biIgZm9udC1zaXplPSIxMiIgbGVuZ3RoQWRqdXN0PSJzcGFjaW5nIiB0ZXh0TGVuZ3RoPSI3MiIgeD0iODQ3LjUiIHk9IjczMC42ODU1Ij4mIzI1MTkxOyYjMzQ4OTI7JiMyNjY5NjsmIzIwMjE0OyYjMjU4MDU7JiMyMDMxNjs8L3RleHQ+PGVsbGlwc2UgY3g9Ijg4My41IiBjeT0iNzczLjE4NTUiIGZpbGw9Im5vbmUiIHJ4PSIxMSIgcnk9IjExIiBzdHlsZT0ic3Ryb2tlOiMyMjIyMjI7c3Ryb2tlLXdpZHRoOjEuMDsiLz48ZWxsaXBzZSBjeD0iODgzLjUiIGN5PSI3NzMuMTg1NSIgZmlsbD0iIzIyMjIyMiIgcng9IjYiIHJ5PSI2IiBzdHlsZT0ic3Ryb2tlOiMyMjIyMjI7c3Ryb2tlLXdpZHRoOjEuMDsiLz48bGluZSBzdHlsZT0ic3Ryb2tlOiMwMDAwMDA7c3Ryb2tlLXdpZHRoOjEuNTsiIHgxPSI4MzAiIHgyPSI4MzAiIHkxPSIxMSIgeTI9Ijc4NC4xODU1Ii8+PGxpbmUgc3R5bGU9InN0cm9rZTojMDAwMDAwO3N0cm9rZS13aWR0aDoxLjU7IiB4MT0iOTM1IiB4Mj0iOTM1IiB5MT0iMTEiIHkyPSI3ODQuMTg1NSIvPjxsaW5lIHN0eWxlPSJzdHJva2U6IzE4MTgxODtzdHJva2Utd2lkdGg6MS4wOyIgeDE9IjY3IiB4Mj0iNjciIHkxPSI1NS4yNjU2IiB5Mj0iNzUuMjY1NiIvPjxwb2x5Z29uIGZpbGw9IiMxODE4MTgiIHBvaW50cz0iNjMsNjUuMjY1Niw2Nyw3NS4yNjU2LDcxLDY1LjI2NTYsNjcsNjkuMjY1NiIgc3R5bGU9InN0cm9rZTojMTgxODE4O3N0cm9rZS13aWR0aDoxLjA7Ii8+PGxpbmUgc3R5bGU9InN0cm9rZTojMTgxODE4O3N0cm9rZS13aWR0aDoxLjA7IiB4MT0iNTMyIiB4Mj0iNTMyIiB5MT0iMjI5LjY1MjMiIHkyPSIzMjYuNTc0MiIvPjxwb2x5Z29uIGZpbGw9IiMxODE4MTgiIHBvaW50cz0iNTI4LDMxNi41NzQyLDUzMiwzMjYuNTc0Miw1MzYsMzE2LjU3NDIsNTMyLDMyMC41NzQyIiBzdHlsZT0ic3Ryb2tlOiMxODE4MTg7c3Ryb2tlLXdpZHRoOjEuMDsiLz48dGV4dCBmaWxsPSIjMDAwMDAwIiBmb250LWZhbWlseT0iU2ltU3VuIiBmb250LXNpemU9IjExIiBsZW5ndGhBZGp1c3Q9InNwYWNpbmciIHRleHRMZW5ndGg9IjE1OCIgeD0iNTM2IiB5PSIyNjUuNzUzOSI+JiMzNTg0MzsmIzI5OTkyO0lET1MmIzMxOTk1OyYjMzI0Nzk7JiMzNjgyNzsmIzM0ODkyOyYjMzU3OTc7JiMzMTYzOTs7ICNncmVlbjwvdGV4dD48dGV4dCBmaWxsPSIjMDAwMDAwIiBmb250LWZhbWlseT0iU2ltU3VuIiBmb250LXNpemU9IjExIiBsZW5ndGhBZGp1c3Q9InNwYWNpbmciIHRleHRMZW5ndGg9IjYiIHg9IjUzNiIgeT0iMjc3LjUyNzMiPiYjMTYwOzwvdGV4dD48dGV4dCBmaWxsPSIjMDAwMDAwIiBmb250LWZhbWlseT0iU2ltU3VuIiBmb250LXNpemU9IjExIiBsZW5ndGhBZGp1c3Q9InNwYWNpbmciIHRleHRMZW5ndGg9IjQwIiB4PSI1MzYiIHk9IjI5MS4zMDA4Ij5DVFMmIzMxOTk1OyYjMzI0Nzk7PC90ZXh0PjxsaW5lIHN0eWxlPSJzdHJva2U6IzAwMDAwMDtzdHJva2Utd2lkdGg6MS4wOyIgeDE9IjUzNiIgeDI9IjU3NiIgeTE9IjI4MC45MDIzIiB5Mj0iMjgwLjkwMjMiLz48bGluZSBzdHlsZT0ic3Ryb2tlOiMwMDAwMDA7c3Ryb2tlLXdpZHRoOjEuMDsiIHgxPSI1MzYiIHgyPSI1NzYiIHkxPSIyOTIuNjc1OCIgeTI9IjI5Mi42NzU4Ii8+PGxpbmUgc3R5bGU9InN0cm9rZTojMDAwMDAwO3N0cm9rZS13aWR0aDoxLjA7IiB4MT0iNTM2IiB4Mj0iNTM2IiB5MT0iMjgwLjkwMjMiIHkyPSIyOTIuNjc1OCIvPjxsaW5lIHN0eWxlPSJzdHJva2U6IzAwMDAwMDtzdHJva2Utd2lkdGg6MS4wOyIgeDE9IjU3NiIgeDI9IjU3NiIgeTE9IjI4MC45MDIzIiB5Mj0iMjkyLjY3NTgiLz48dGV4dCBmaWxsPSIjMDAwMDAwIiBmb250LWZhbWlseT0iU2ltU3VuIiBmb250LXNpemU9IjExIiBsZW5ndGhBZGp1c3Q9InNwYWNpbmciIHRleHRMZW5ndGg9IjcxIiB4PSI1MzYiIHk9IjMwNS4wNzQyIj46JiMzNzE5NzsmIzMyNjIyOyYjMjA5OTg7JiMzMjQ1MjsmIzM1MjY4OyYjMjEwMTc7PC90ZXh0PjxsaW5lIHN0eWxlPSJzdHJva2U6IzE4MTgxODtzdHJva2Utd2lkdGg6MS4wOyIgeDE9IjUzMiIgeDI9IjUzMiIgeTE9IjM1OS40MTgiIHkyPSIzNzkuNDE4Ii8+PHBvbHlnb24gZmlsbD0iIzE4MTgxOCIgcG9pbnRzPSI1MjgsMzY5LjQxOCw1MzIsMzc5LjQxOCw1MzYsMzY5LjQxOCw1MzIsMzczLjQxOCIgc3R5bGU9InN0cm9rZTojMTgxODE4O3N0cm9rZS13aWR0aDoxLjA7Ii8+PGxpbmUgc3R5bGU9InN0cm9rZTojMTgxODE4O3N0cm9rZS13aWR0aDoxLjA7IiB4MT0iNTMyIiB4Mj0iNTMyIiB5MT0iNDU2LjI2MTciIHkyPSI0ODAuMjYxNyIvPjxwb2x5Z29uIGZpbGw9IiMxODE4MTgiIHBvaW50cz0iNTI4LDQ3MC4yNjE3LDUzMiw0ODAuMjYxNyw1MzYsNDcwLjI2MTcsNTMyLDQ3NC4yNjE3IiBzdHlsZT0ic3Ryb2tlOiMxODE4MTg7c3Ryb2tlLXdpZHRoOjEuMDsiLz48bGluZSBzdHlsZT0ic3Ryb2tlOiMxODE4MTg7c3Ryb2tlLXdpZHRoOjEuMDsiIHgxPSI1NjkiIHgyPSI1OTEiIHkxPSI0NDQuMjYxNyIgeTI9IjQ0NC4yNjE3Ii8+PHBvbHlnb24gZmlsbD0iIzE4MTgxOCIgcG9pbnRzPSI1ODEsNDQwLjI2MTcsNTkxLDQ0NC4yNjE3LDU4MSw0NDguMjYxNyw1ODUsNDQ0LjI2MTciIHN0eWxlPSJzdHJva2U6IzE4MTgxODtzdHJva2Utd2lkdGg6MS4wOyIvPjxsaW5lIHN0eWxlPSJzdHJva2U6IzE4MTgxODtzdHJva2Utd2lkdGg6MS4wOyIgeDE9IjUzMiIgeDI9IjUzMiIgeTE9IjUxMy4xMDU1IiB5Mj0iNTE4LjEwNTUiLz48bGluZSBzdHlsZT0ic3Ryb2tlOiMxODE4MTg7c3Ryb2tlLXdpZHRoOjEuMDsiIHgxPSI1MzIiIHgyPSI3ODAiIHkxPSI1MTguMTA1NSIgeTI9IjUxOC4xMDU1Ii8+PGxpbmUgc3R5bGU9InN0cm9rZTojMTgxODE4O3N0cm9rZS13aWR0aDoxLjA7IiB4MT0iNzgwIiB4Mj0iNzgwIiB5MT0iNTE4LjEwNTUiIHkyPSI1MzMuMTA1NSIvPjxwb2x5Z29uIGZpbGw9IiMxODE4MTgiIHBvaW50cz0iNzc2LDUyMy4xMDU1LDc4MCw1MzMuMTA1NSw3ODQsNTIzLjEwNTUsNzgwLDUyNy4xMDU1IiBzdHlsZT0ic3Ryb2tlOiMxODE4MTg7c3Ryb2tlLXdpZHRoOjEuMDsiLz48bGluZSBzdHlsZT0ic3Ryb2tlOiMxODE4MTg7c3Ryb2tlLXdpZHRoOjEuMDsiIHgxPSI1MzIiIHgyPSI1MzIiIHkxPSI0MTIuMjYxNyIgeTI9IjQzMi4yNjE3Ii8+PHBvbHlnb24gZmlsbD0iIzE4MTgxOCIgcG9pbnRzPSI1MjgsNDIyLjI2MTcsNTMyLDQzMi4yNjE3LDUzNiw0MjIuMjYxNyw1MzIsNDI2LjI2MTciIHN0eWxlPSJzdHJva2U6IzE4MTgxODtzdHJva2Utd2lkdGg6MS4wOyIvPjxsaW5lIHN0eWxlPSJzdHJva2U6IzE4MTgxODtzdHJva2Utd2lkdGg6MS4wOyIgeDE9Ijc4MCIgeDI9Ijc4MCIgeTE9IjU2NS45NDkyIiB5Mj0iNTg1Ljk0OTIiLz48cG9seWdvbiBmaWxsPSIjMTgxODE4IiBwb2ludHM9Ijc3Niw1NzUuOTQ5Miw3ODAsNTg1Ljk0OTIsNzg0LDU3NS45NDkyLDc4MCw1NzkuOTQ5MiIgc3R5bGU9InN0cm9rZTojMTgxODE4O3N0cm9rZS13aWR0aDoxLjA7Ii8+PGxpbmUgc3R5bGU9InN0cm9rZTojMTgxODE4O3N0cm9rZS13aWR0aDoxLjA7IiB4MT0iODgzLjUiIHgyPSI4ODMuNSIgeTE9IjY4OS4zNDE4IiB5Mj0iNzA5LjM0MTgiLz48cG9seWdvbiBmaWxsPSIjMTgxODE4IiBwb2ludHM9Ijg3OS41LDY5OS4zNDE4LDg4My41LDcwOS4zNDE4LDg4Ny41LDY5OS4zNDE4LDg4My41LDcwMy4zNDE4IiBzdHlsZT0ic3Ryb2tlOiMxODE4MTg7c3Ryb2tlLXdpZHRoOjEuMDsiLz48bGluZSBzdHlsZT0ic3Ryb2tlOiMxODE4MTg7c3Ryb2tlLXdpZHRoOjEuMDsiIHgxPSI4ODMuNSIgeDI9Ijg4My41IiB5MT0iNzQyLjE4NTUiIHkyPSI3NjIuMTg1NSIvPjxwb2x5Z29uIGZpbGw9IiMxODE4MTgiIHBvaW50cz0iODc5LjUsNzUyLjE4NTUsODgzLjUsNzYyLjE4NTUsODg3LjUsNzUyLjE4NTUsODgzLjUsNzU2LjE4NTUiIHN0eWxlPSJzdHJva2U6IzE4MTgxODtzdHJva2Utd2lkdGg6MS4wOyIvPjxsaW5lIHN0eWxlPSJzdHJva2U6IzE4MTgxODtzdHJva2Utd2lkdGg6MS4wOyIgeDE9IjY3IiB4Mj0iNjciIHkxPSIxMDguMTA5NCIgeTI9IjExMy4xMDk0Ii8+PGxpbmUgc3R5bGU9InN0cm9rZTojMTgxODE4O3N0cm9rZS13aWR0aDoxLjA7IiB4MT0iNjciIHgyPSIxNjkiIHkxPSIxMTMuMTA5NCIgeTI9IjExMy4xMDk0Ii8+PGxpbmUgc3R5bGU9InN0cm9rZTojMTgxODE4O3N0cm9rZS13aWR0aDoxLjA7IiB4MT0iMTY5IiB4Mj0iMTY5IiB5MT0iMTEzLjEwOTQiIHkyPSIxMjguMTA5NCIvPjxwb2x5Z29uIGZpbGw9IiMxODE4MTgiIHBvaW50cz0iMTY1LDExOC4xMDk0LDE2OSwxMjguMTA5NCwxNzMsMTE4LjEwOTQsMTY5LDEyMi4xMDk0IiBzdHlsZT0ic3Ryb2tlOiMxODE4MTg7c3Ryb2tlLXdpZHRoOjEuMDsiLz48bGluZSBzdHlsZT0ic3Ryb2tlOiMxODE4MTg7c3Ryb2tlLXdpZHRoOjEuMDsiIHgxPSIxNjkiIHgyPSIxNjkiIHkxPSIxNjAuOTUzMSIgeTI9IjE3NS40MDIzIi8+PGxpbmUgc3R5bGU9InN0cm9rZTojMTgxODE4O3N0cm9rZS13aWR0aDoxLjA7IiB4MT0iMTY5IiB4Mj0iNTMyIiB5MT0iMTc1LjQwMjMiIHkyPSIxNzUuNDAyMyIvPjxsaW5lIHN0eWxlPSJzdHJva2U6IzE4MTgxODtzdHJva2Utd2lkdGg6MS4wOyIgeDE9IjUzMiIgeDI9IjUzMiIgeTE9IjE3NS40MDIzIiB5Mj0iMTk2LjgwODYiLz48cG9seWdvbiBmaWxsPSIjMTgxODE4IiBwb2ludHM9IjUyOCwxODYuODA4Niw1MzIsMTk2LjgwODYsNTM2LDE4Ni44MDg2LDUzMiwxOTAuODA4NiIgc3R5bGU9InN0cm9rZTojMTgxODE4O3N0cm9rZS13aWR0aDoxLjA7Ii8+PGxpbmUgc3R5bGU9InN0cm9rZTojMTgxODE4O3N0cm9rZS13aWR0aDoxLjA7IiB4MT0iNzgwIiB4Mj0iNzgwIiB5MT0iNjE4Ljc5MyIgeTI9IjY0MS40OTgiLz48bGluZSBzdHlsZT0ic3Ryb2tlOiMxODE4MTg7c3Ryb2tlLXdpZHRoOjEuMDsiIHgxPSI3ODAiIHgyPSI4ODMuNSIgeTE9IjY0MS40OTgiIHkyPSI2NDEuNDk4Ii8+PGxpbmUgc3R5bGU9InN0cm9rZTojMTgxODE4O3N0cm9rZS13aWR0aDoxLjA7IiB4MT0iODgzLjUiIHgyPSI4ODMuNSIgeTE9IjY0MS40OTgiIHkyPSI2NTYuNDk4Ii8+PHBvbHlnb24gZmlsbD0iIzE4MTgxOCIgcG9pbnRzPSI4NzkuNSw2NDYuNDk4LDg4My41LDY1Ni40OTgsODg3LjUsNjQ2LjQ5OCw4ODMuNSw2NTAuNDk4IiBzdHlsZT0ic3Ryb2tlOiMxODE4MTg7c3Ryb2tlLXdpZHRoOjEuMDsiLz48dGV4dCBmaWxsPSIjMDAwMDAwIiBmb250LWZhbWlseT0iU2ltU3VuIiBmb250LXNpemU9IjExIiBsZW5ndGhBZGp1c3Q9InNwYWNpbmciIHRleHRMZW5ndGg9IjU3IiB4PSI3ODQiIHk9IjYzNC45OTgiPiYjMjA4ODk7JiMyMDgzNztIaXZlJiMzNDkyMDs8L3RleHQ+PHRleHQgZmlsbD0iIzAwMDAwMCIgZm9udC1mYW1pbHk9IlNpbVN1biIgZm9udC1zaXplPSIxOCIgbGVuZ3RoQWRqdXN0PSJzcGFjaW5nIiB0ZXh0TGVuZ3RoPSI3MiIgeD0iMzAiIHk9IjI4LjAxNTYiPiYjMzY4MTY7JiMzMzgyOTsmIzIwMTU0OyYjMjE1OTI7PC90ZXh0Pjx0ZXh0IGZpbGw9IiMwMDAwMDAiIGZvbnQtZmFtaWx5PSJTaW1TdW4iIGZvbnQtc2l6ZT0iMTgiIGxlbmd0aEFkanVzdD0ic3BhY2luZyIgdGV4dExlbmd0aD0iNjMiIHg9IjI1NCIgeT0iMjguMDE1NiI+Q1RTJiMzMTk5NTsmIzMyNDc5OzwvdGV4dD48dGV4dCBmaWxsPSIjMDAwMDAwIiBmb250LWZhbWlseT0iU2ltU3VuIiBmb250LXNpemU9IjE4IiBsZW5ndGhBZGp1c3Q9InNwYWNpbmciIHRleHRMZW5ndGg9IjkwIiB4PSI1NDYiIHk9IjI4LjAxNTYiPlBMT0xTTS13ZWI8L3RleHQ+PHRleHQgZmlsbD0iIzAwMDAwMCIgZm9udC1mYW1pbHk9IlNpbVN1biIgZm9udC1zaXplPSIxOCIgbGVuZ3RoQWRqdXN0PSJzcGFjaW5nIiB0ZXh0TGVuZ3RoPSI5MCIgeD0iNzM0IiB5PSIyOC4wMTU2Ij5QTE9MU00mIzMxOTk1OyYjMzI0Nzk7PC90ZXh0Pjx0ZXh0IGZpbGw9IiMwMDAwMDAiIGZvbnQtZmFtaWx5PSJTaW1TdW4iIGZvbnQtc2l6ZT0iMTgiIGxlbmd0aEFkanVzdD0ic3BhY2luZyIgdGV4dExlbmd0aD0iNjMiIHg9Ijg1MSIgeT0iMjguMDE1NiI+Q1RTLUJEUDwvdGV4dD48IS0tU1JDPVtUUDlWUno5RzZDUmxwd1N1c011czRlWEVsUDBjY1dyU0Q0d3QxQnowWFNBUUdSa3FQU1E0MnRIcVcwQzEtUlV2blFyZ25zdzA2R3BCUTkzbE9kaC15MnJpVHJZWm9LcGxKZl90VVBfVlN1d3c5S2hSbENBZE80bzh5LWNhallmQnNhaS05UzJ2WTlZQWZBS3ZlN2VJRmdnOUV3QnNUZU1GUllLS0VJdDVHZDlJTGszeXdXRnRrcXFmQXA1MWNRZGtCcC15eXNHOVcwb1RMNmRMajRTWkwzbDgwNU5aNUdxNHlPYjlabFVuS1IyajhTdlFqNUZXNzZkZUxPR0NCNkFUUDQxbWdmVjlrNFV3SHpEaWFOUG9nNzM4MEtkTTFBWThZS3FEbURfUFZQeUZ3T0RmZXVWaFBOanl4RkMxVTNUMEJ0UDl1cG1RSlZoYmY5ZzJhVjFwUG5OalZtczViXzVmZGRIXzBSV0tlRnFjd1JMZl9uQl9VNHl4UHdYSXNyWFJOdWt5aTRWVnhUNGQ4NFdud0F2bzRoNXBfbmxYakhDOTVwbEtBQjVYcWNzSGZpYTFfb0VzeUxidVZQUVRKZXV5NUdWZDR1ZVdJQlVvZVM4VWlOQl9QU0ZEMnJwazRRa0VsLUdPNm9EWDY0WlZQR0FObnhOdmZaQ19EZTFGUW0zVTJwMXBON2ZkTi1jZXJBQkxDSGhMXy1BUjlQZFRtdE1EZDdUdUpPbFJtc2R4ZnRDdk9YbWtlOXcxWXJWSng2U3dvSnpVWERnYzhDNDVWRDFWMTEwNktSTTRrb1JSSUZDM3JYbjN2ZTJHTDBMZGxkaGNJYkxEdGRQM1k3NmxPUXlRX0Q3NFpJN1JSS3lDTEJkYVJlZnR0ZUEzUjVpTS1jMnVuUUV6R3dJUkp5S1RXSGhkaS1WWk5tYmxFMndxUnc1QW9fdDVJbDh5X1lLNVJmOF9dLS0+PC9nPjwvc3ZnPg==;" vertex="1" parent="1">
            <mxGeometry x="-70" y="-70" width="956" height="796" as="geometry" />
          </mxCell>
        </UserObject>
      </root>
    </mxGraphModel>
  </diagram>
</mxfile>
